{"glyphs":{"0":{"ha":928,"x_min":51,"x_max":874,"o":"m 464 972 q 692 901 597 972 q 831 722 788 831 q 874 482 874 614 q 831 238 874 347 q 694 58 789 128 q 464 -12 599 -12 q 158 131 265 -12 q 51 481 51 275 q 165 838 51 703 q 464 972 278 972 m 464 754 q 393 734 422 754 q 349 686 364 714 q 325 615 333 658 q 315 541 317 571 q 314 469 314 511 q 464 206 314 206 q 613 482 613 206 q 576 688 613 621 q 464 754 540 754 z "},"1":{"ha":928,"x_min":164,"x_max":678,"o":"m 678 963 l 678 0 l 389 0 l 389 551 l 164 551 l 164 754 l 190 754 q 370 810 296 754 q 447 963 444 867 l 678 963 z "},"2":{"ha":928,"x_min":49,"x_max":882,"o":"m 882 235 l 882 0 l 49 0 l 49 17 q 66 137 49 82 q 118 238 83 192 q 193 318 153 283 q 289 392 233 353 q 392 458 336 425 q 478 508 447 490 q 537 547 508 525 q 576 590 565 568 q 588 640 588 611 q 555 710 586 685 q 471 736 524 736 q 360 689 390 736 q 326 558 331 642 l 67 558 l 67 572 q 172 870 67 768 q 482 972 278 972 q 760 888 656 972 q 864 665 864 804 q 849 561 864 607 q 800 478 835 515 q 735 418 765 442 q 650 358 706 394 q 542 294 621 339 q 425 221 464 250 q 639 233 549 233 l 882 235 z "},"3":{"ha":928,"x_min":47,"x_max":875,"o":"m 75 643 q 187 890 82 808 q 465 972 292 972 q 742 898 639 972 q 846 697 846 824 q 809 577 846 625 q 708 518 772 529 q 831 444 788 500 q 875 306 875 389 q 851 185 875 239 q 788 94 828 131 q 695 34 749 58 q 585 -1 642 10 q 467 -12 528 -12 q 165 75 282 -12 q 47 338 47 163 q 49 364 47 353 l 310 364 l 310 350 q 454 215 310 215 q 556 242 519 215 q 592 317 592 268 q 442 418 592 418 q 434 417 440 418 q 417 417 428 417 q 393 417 406 417 l 382 417 l 382 596 q 428 594 399 594 q 500 596 481 594 q 565 620 540 599 q 589 674 589 642 q 556 736 589 713 q 465 760 522 760 q 335 643 336 760 l 75 643 z "},"4":{"ha":928,"x_min":49,"x_max":882,"o":"m 882 438 l 882 210 l 756 210 l 756 0 l 474 0 l 474 210 l 49 210 l 49 463 l 481 961 l 756 961 l 756 438 l 882 438 m 483 436 l 483 619 l 488 708 l 258 432 q 344 436 321 436 l 483 436 z "},"5":{"ha":928,"x_min":33,"x_max":869,"o":"m 815 961 l 815 731 l 374 731 l 363 672 q 340 590 357 639 q 547 661 422 661 q 783 576 696 661 q 869 346 869 492 q 750 77 869 167 q 449 -12 631 -12 q 155 65 268 -12 q 33 308 42 142 l 303 308 q 447 207 311 207 q 556 242 517 207 q 594 342 594 278 q 556 442 594 407 q 446 478 518 478 q 318 408 356 478 l 67 408 l 163 961 l 815 961 z "},"6":{"ha":928,"x_min":64,"x_max":872,"o":"m 864 707 l 608 707 q 501 782 589 782 q 423 765 456 782 q 372 717 390 749 q 343 652 353 685 q 328 576 333 619 q 540 647 415 647 q 784 567 696 647 q 872 342 872 486 q 758 83 872 179 q 481 -12 644 -12 q 169 119 275 -12 q 64 457 64 251 q 89 656 64 565 q 164 819 114 747 q 300 931 214 890 q 499 972 386 972 q 739 907 643 972 q 864 707 835 842 m 575 435 q 556 455 575 435 q 478 475 536 475 q 381 436 419 475 q 343 338 343 397 q 381 241 343 279 q 478 203 419 203 q 575 242 536 203 q 614 339 614 281 q 575 435 614 396 z "},"7":{"ha":928,"x_min":90,"x_max":832,"o":"m 832 961 l 832 739 q 543 22 543 435 l 543 0 l 239 0 q 238 14 238 7 q 339 407 238 183 q 558 724 440 631 q 379 718 415 718 l 90 718 l 90 961 l 832 961 z "},"8":{"ha":928,"x_min":36,"x_max":892,"o":"m 228 508 q 78 704 78 554 q 183 900 78 828 q 464 972 288 972 q 596 958 532 972 q 719 916 660 944 q 815 833 779 888 q 851 707 851 779 q 813 578 851 629 q 703 508 775 526 q 892 288 892 461 q 853 146 892 207 q 752 52 815 85 q 618 3 689 19 q 471 -12 547 -12 q 351 -5 408 -12 q 235 24 294 3 q 133 76 176 44 q 63 161 90 108 q 36 282 36 214 q 228 508 36 467 m 463 785 q 356 758 394 785 q 317 685 317 732 q 356 609 317 636 q 468 582 396 582 q 575 610 536 582 q 614 688 614 639 q 463 785 614 785 m 461 417 q 347 387 388 417 q 307 303 307 357 q 349 217 307 247 q 467 186 390 186 q 581 216 540 186 q 621 301 621 246 q 578 386 621 356 q 461 417 536 417 z "},"9":{"ha":928,"x_min":51,"x_max":864,"o":"m 63 253 l 318 253 q 442 164 342 164 q 504 177 478 164 q 545 206 531 190 q 571 253 560 221 q 585 304 582 286 q 593 363 588 322 q 596 382 594 375 q 394 311 525 311 q 144 385 238 311 q 51 614 51 460 q 165 874 51 776 q 446 972 279 972 q 756 840 649 972 q 864 496 864 707 q 839 301 864 390 q 764 140 814 211 q 629 28 714 69 q 435 -12 544 -12 q 177 56 274 -12 q 63 253 81 125 m 544 715 q 525 734 544 715 q 447 753 506 753 q 351 716 389 753 q 313 622 313 679 q 351 524 313 564 q 449 485 390 485 q 544 524 506 485 q 583 618 583 563 q 544 715 583 676 z "}," ":{"ha":464,"x_min":0,"x_max":0,"o":""},"!":{"ha":438,"x_min":76,"x_max":361,"o":"m 361 989 l 361 765 l 285 357 l 151 357 l 76 760 l 76 989 l 361 989 m 361 285 l 361 0 l 76 0 l 76 285 l 361 285 z "},"\"":{"ha":721,"x_min":118,"x_max":603,"o":"m 290 550 l 156 550 l 118 961 l 326 961 l 290 550 m 567 550 l 432 550 l 394 961 l 603 961 l 567 550 z "},"#":{"ha":928,"x_min":31,"x_max":897,"o":"m 750 549 l 725 417 l 835 417 l 835 228 l 689 228 l 646 0 l 415 0 l 458 228 l 367 228 l 324 0 l 93 0 l 138 228 l 31 228 l 31 417 l 175 417 l 200 549 l 94 549 l 94 738 l 236 738 l 279 963 l 507 963 l 464 738 l 557 738 l 600 963 l 829 963 l 786 738 l 897 738 l 897 549 l 750 549 m 428 549 l 404 417 l 496 417 l 519 549 l 428 549 z "},"$":{"ha":928,"x_min":18,"x_max":901,"o":"m 507 1096 l 507 982 q 761 908 660 978 q 863 690 863 838 l 863 671 l 611 671 l 611 681 q 586 763 611 735 q 507 797 561 792 l 507 608 q 738 546 682 569 q 899 346 881 485 q 901 297 901 322 q 792 69 901 157 q 507 -19 683 -19 l 507 -144 l 424 -144 l 424 -19 l 417 -19 q 222 14 310 -19 q 76 124 135 47 q 18 314 18 201 q 19 324 18 319 l 297 324 l 297 314 q 424 178 297 185 l 424 388 q 58 683 58 446 q 113 853 58 785 q 246 949 168 921 q 424 982 324 976 l 424 1096 l 507 1096 m 424 626 l 424 799 q 310 715 310 796 q 313 690 310 701 q 325 671 317 679 q 339 657 333 663 q 359 646 344 651 q 379 639 374 640 q 403 633 385 638 q 424 626 421 628 m 507 367 l 507 176 q 628 271 628 181 q 600 333 628 311 q 507 367 572 356 z "},"%":{"ha":1415,"x_min":100,"x_max":1325,"o":"m 1050 985 l 511 -28 l 360 -28 l 899 985 l 1050 985 m 1082 507 q 1261 440 1197 507 q 1325 250 1325 372 q 1265 55 1325 128 q 1082 -18 1204 -18 q 905 50 968 -18 q 842 242 842 118 q 905 437 842 367 q 1082 507 968 507 m 1086 386 q 1021 251 1019 386 q 1021 243 1021 246 q 1021 232 1021 239 q 1022 173 1021 194 q 1038 128 1024 151 q 1082 104 1053 104 q 1132 137 1118 104 q 1146 256 1146 169 q 1144 302 1146 286 q 1138 341 1143 318 q 1120 375 1133 364 q 1086 386 1107 386 m 340 974 q 519 906 456 974 q 583 717 583 839 q 523 522 583 594 q 340 449 463 449 q 163 517 226 449 q 100 708 100 585 q 163 903 100 833 q 340 974 226 974 m 344 853 q 279 718 278 853 q 279 710 279 713 q 279 699 279 706 q 281 640 279 661 q 297 594 282 618 q 340 571 311 571 q 390 603 376 571 q 404 722 404 636 q 403 769 404 753 q 397 808 401 785 q 378 842 392 831 q 344 853 365 853 z "},"&":{"ha":1029,"x_min":47,"x_max":1043,"o":"m 956 486 q 835 246 933 349 l 1043 0 l 717 0 l 660 71 q 530 1 588 22 q 396 -21 472 -21 q 150 60 253 -21 q 47 283 47 142 q 104 453 47 376 q 263 574 161 529 q 186 754 186 667 q 273 935 186 861 q 486 1008 360 1008 q 692 933 610 1008 q 775 743 775 857 q 613 501 775 583 l 689 410 q 728 486 713 436 l 956 486 m 482 658 q 538 703 518 681 q 557 763 557 726 q 538 808 557 790 q 489 826 519 826 q 440 808 460 826 q 421 763 421 790 q 482 658 421 719 m 403 393 q 307 289 307 349 q 335 229 307 253 q 404 206 363 206 q 517 254 465 206 l 403 393 z "},"'":{"ha":411,"x_min":101,"x_max":310,"o":"m 269 550 l 142 550 l 101 961 l 310 961 l 269 550 z "},"(":{"ha":438,"x_min":58,"x_max":451,"o":"m 444 1001 q 319 378 319 713 q 355 68 319 236 q 451 -232 390 -100 l 207 -232 q 58 372 58 54 q 93 691 58 521 q 207 1001 128 861 l 444 1001 z "},")":{"ha":438,"x_min":-14,"x_max":379,"o":"m 379 372 q 231 -232 379 54 l -14 -232 q 83 68 47 -100 q 118 378 118 236 q -7 1001 118 713 l 231 1001 q 344 691 310 861 q 379 372 379 521 z "},"*":{"ha":643,"x_min":26,"x_max":615,"o":"m 615 731 l 440 676 l 551 529 l 426 436 l 318 590 l 211 436 l 88 529 l 203 676 l 26 731 l 75 878 l 246 813 l 242 1000 l 401 1000 l 393 813 l 564 878 l 615 731 z "},"+":{"ha":833,"x_min":58,"x_max":778,"o":"m 58 472 l 304 472 l 304 722 l 532 722 l 532 472 l 778 472 l 778 254 l 532 254 l 532 0 l 304 0 l 304 254 l 58 254 l 58 472 z "},",":{"ha":464,"x_min":64,"x_max":347,"o":"m 347 285 l 347 33 q 269 -174 347 -93 q 64 -257 192 -256 l 64 -129 q 150 -87 121 -117 q 183 0 179 -57 l 64 0 l 64 285 l 347 285 z "},"-":{"ha":565,"x_min":65,"x_max":500,"o":"m 500 489 l 500 253 l 65 253 l 65 489 l 500 489 z "},".":{"ha":464,"x_min":63,"x_max":349,"o":"m 349 285 l 349 0 l 63 0 l 63 285 l 349 285 z "},"/":{"ha":592,"x_min":-12,"x_max":604,"o":"m 604 1015 l 247 -24 l -12 -24 l 344 1015 l 604 1015 z "},":":{"ha":464,"x_min":78,"x_max":360,"o":"m 360 708 l 360 425 l 78 425 l 78 708 l 360 708 m 360 285 l 360 0 l 78 0 l 78 285 l 360 285 z "},";":{"ha":464,"x_min":75,"x_max":358,"o":"m 358 707 l 358 424 l 75 424 l 75 707 l 358 707 m 358 285 l 358 53 q 291 -174 358 -96 q 75 -257 224 -251 l 75 -131 q 197 0 186 -114 l 75 0 l 75 285 l 358 285 z "},"<":{"ha":833,"x_min":15,"x_max":818,"o":"m 818 -39 l 15 263 l 15 464 l 818 764 l 818 529 l 313 363 l 818 196 l 818 -39 z "},"=":{"ha":833,"x_min":29,"x_max":806,"o":"m 29 631 l 806 631 l 806 418 l 29 418 l 29 631 m 29 325 l 806 325 l 806 114 l 29 114 l 29 325 z "},">":{"ha":833,"x_min":15,"x_max":818,"o":"m 15 764 l 818 464 l 818 263 l 15 -39 l 15 196 l 522 363 l 15 529 l 15 764 z "},"?":{"ha":797,"x_min":22,"x_max":774,"o":"m 22 660 q 132 920 31 828 q 410 1013 233 1013 q 668 934 563 1013 q 774 714 774 856 q 736 585 774 635 q 621 496 699 536 q 599 485 615 493 q 576 473 582 476 q 558 462 571 469 q 540 449 544 454 q 528 435 536 444 q 517 416 519 425 q 511 394 514 407 q 508 368 508 382 l 508 354 l 254 354 l 254 368 q 278 524 254 472 q 385 615 301 576 q 399 622 388 617 q 413 628 410 626 q 425 634 415 629 q 438 642 435 639 q 449 649 442 644 q 460 658 457 654 q 467 669 463 663 q 474 681 472 675 q 478 696 476 688 q 479 713 479 704 q 458 762 479 743 q 403 781 438 781 q 310 660 310 781 l 22 660 m 521 285 l 521 0 l 238 0 l 238 285 l 521 285 z "},"@":{"ha":1111,"x_min":25,"x_max":1068,"o":"m 635 311 q 463 219 568 219 q 316 283 371 219 q 261 447 261 346 q 348 686 261 583 q 551 789 435 789 q 690 724 647 789 l 703 765 l 872 765 l 785 469 q 768 386 768 410 q 804 350 768 350 q 899 427 854 350 q 944 601 944 504 q 847 823 944 739 q 589 907 750 907 q 273 785 397 907 q 149 479 149 664 q 267 193 149 304 q 575 82 386 82 q 761 115 676 82 q 944 219 846 149 l 1007 135 q 569 -25 793 -25 q 180 119 335 -25 q 25 483 25 264 q 188 861 25 708 q 588 1014 350 1014 q 933 896 797 1014 q 1068 593 1068 778 q 978 333 1068 449 q 769 218 888 218 q 683 244 719 218 q 635 311 646 269 m 589 658 q 494 580 533 658 q 456 432 456 501 q 508 350 456 350 q 601 446 563 350 q 639 606 639 542 q 589 658 639 658 z "},"A":{"ha":1003,"x_min":-14,"x_max":1015,"o":"m 651 989 l 1015 0 l 708 0 l 660 140 l 342 140 l 293 0 l -14 0 l 351 989 l 651 989 m 593 353 l 540 522 q 503 672 522 582 q 461 521 481 583 q 407 353 440 453 l 593 353 z "},"B":{"ha":1029,"x_min":82,"x_max":981,"o":"m 82 989 l 581 989 q 932 742 932 989 q 808 543 932 617 q 981 300 981 483 q 949 156 981 217 q 863 63 918 96 q 743 15 807 29 q 601 0 679 0 l 82 0 l 82 989 m 376 764 l 376 611 l 547 611 q 615 631 590 611 q 639 686 639 651 q 533 764 639 764 l 376 764 m 376 421 l 376 235 l 564 235 q 679 326 679 235 q 564 421 679 421 l 376 421 z "},"C":{"ha":1054,"x_min":56,"x_max":1010,"o":"m 1010 390 q 869 85 997 193 q 551 -24 740 -24 q 192 125 328 -24 q 56 497 56 274 q 195 866 56 718 q 557 1014 335 1014 q 866 902 738 1014 q 1006 624 994 790 l 711 624 q 657 726 699 690 q 551 763 615 763 q 440 720 485 763 q 378 621 394 678 q 361 497 361 564 q 412 303 361 374 q 551 232 463 232 q 711 390 688 232 l 1010 390 z "},"D":{"ha":1081,"x_min":86,"x_max":1026,"o":"m 86 989 l 528 989 q 892 858 757 989 q 1026 497 1026 726 q 897 126 1026 253 q 522 0 767 0 l 86 0 l 86 989 m 383 740 l 383 250 l 503 250 q 669 314 613 250 q 725 492 725 378 q 659 678 725 615 q 474 740 593 740 l 383 740 z "},"E":{"ha":978,"x_min":82,"x_max":915,"o":"m 901 989 l 901 749 l 381 749 l 381 625 l 853 625 l 853 396 l 381 396 l 381 251 l 915 251 l 915 0 l 82 0 l 82 989 l 901 989 z "},"F":{"ha":875,"x_min":81,"x_max":846,"o":"m 846 989 l 846 740 l 383 740 l 383 589 l 782 589 l 782 356 l 383 356 l 383 0 l 81 0 l 81 989 l 846 989 z "},"G":{"ha":1081,"x_min":51,"x_max":1011,"o":"m 1011 544 l 1011 0 l 818 0 l 808 101 q 522 -22 704 -22 q 182 121 313 -22 q 51 494 51 264 q 192 867 51 722 q 556 1013 333 1013 q 851 910 725 1013 q 996 643 976 808 l 704 643 q 550 758 674 758 q 357 479 357 758 q 410 283 357 350 q 565 217 463 217 q 735 332 704 217 l 604 332 l 604 544 l 1011 544 z "},"H":{"ha":1054,"x_min":81,"x_max":974,"o":"m 974 989 l 974 0 l 671 0 l 671 390 l 385 390 l 385 0 l 81 0 l 81 989 l 385 989 l 385 657 l 671 657 l 671 989 l 974 989 z "},"I":{"ha":463,"x_min":81,"x_max":383,"o":"m 383 989 l 383 0 l 81 0 l 81 989 l 383 989 z "},"J":{"ha":849,"x_min":44,"x_max":776,"o":"m 776 989 l 776 331 q 681 67 776 157 q 410 -24 586 -24 q 138 72 232 -24 q 44 342 44 168 l 44 415 l 317 415 l 317 386 q 317 360 317 382 q 317 332 317 339 q 318 306 317 325 q 323 278 319 286 q 332 256 326 269 q 347 235 338 242 q 369 224 356 229 q 399 219 382 219 q 456 242 438 219 q 474 317 474 265 l 474 989 l 776 989 z "},"K":{"ha":1081,"x_min":86,"x_max":1094,"o":"m 1038 989 l 679 604 l 1094 0 l 715 0 l 474 385 l 385 292 l 385 0 l 86 0 l 86 989 l 386 989 l 385 789 q 381 638 385 767 l 663 989 l 1038 989 z "},"L":{"ha":875,"x_min":81,"x_max":824,"o":"m 824 258 l 824 0 l 81 0 l 81 989 l 385 989 l 385 258 l 824 258 z "},"M":{"ha":1311,"x_min":83,"x_max":1229,"o":"m 1229 989 l 1229 0 l 944 0 l 944 149 q 956 711 944 411 l 769 0 l 543 0 l 356 711 q 367 190 365 486 l 368 0 l 83 0 l 83 989 l 518 989 l 582 732 q 658 357 632 525 q 742 739 679 476 l 803 989 l 1229 989 z "},"N":{"ha":1054,"x_min":81,"x_max":974,"o":"m 974 989 l 974 0 l 683 0 l 438 421 q 363 569 403 481 q 372 343 372 481 l 374 0 l 81 0 l 81 989 l 381 989 l 594 618 q 692 432 660 507 q 683 660 683 544 l 682 989 l 974 989 z "},"O":{"ha":1106,"x_min":51,"x_max":1054,"o":"m 560 1015 q 918 872 782 1015 q 1054 494 1054 728 q 917 119 1054 263 q 557 -24 781 -24 q 190 119 329 -24 q 51 496 51 261 q 190 873 51 731 q 560 1015 329 1015 m 556 772 q 412 700 464 772 q 360 500 360 628 q 411 295 360 368 q 557 222 463 222 q 699 295 650 222 q 747 508 747 368 q 697 702 747 632 q 556 772 646 772 z "},"P":{"ha":978,"x_min":81,"x_max":943,"o":"m 81 989 l 511 989 q 943 638 943 989 q 841 390 943 474 q 571 306 739 306 l 382 306 l 382 0 l 81 0 l 81 989 m 382 746 l 382 536 l 528 536 q 653 640 653 536 q 522 746 653 746 l 382 746 z "},"Q":{"ha":1106,"x_min":51,"x_max":1056,"o":"m 1056 29 l 921 -107 l 779 36 q 539 -24 685 -24 q 186 119 321 -24 q 51 493 51 263 q 194 868 51 721 q 560 1015 338 1015 q 911 870 772 1015 q 1050 504 1050 725 q 1018 303 1050 396 q 931 157 986 210 l 1056 29 m 726 361 q 747 497 747 404 q 697 700 747 629 q 553 771 647 771 q 408 698 460 771 q 357 494 357 625 q 408 292 357 369 q 544 215 460 215 q 597 228 574 215 l 508 314 l 643 447 l 726 361 z "},"R":{"ha":1029,"x_min":79,"x_max":997,"o":"m 79 989 l 611 989 q 732 975 674 989 q 844 930 790 961 q 931 839 899 899 q 964 697 964 779 q 924 551 964 617 q 818 456 885 486 q 919 367 885 439 q 963 211 954 294 l 972 107 q 997 0 979 28 l 697 0 q 679 93 685 26 l 675 149 q 665 229 671 199 q 642 290 658 260 q 592 335 625 321 q 507 349 558 349 l 379 349 l 379 0 l 79 0 l 79 989 m 379 760 l 379 557 l 546 557 q 669 660 669 557 q 529 760 669 760 l 379 760 z "},"S":{"ha":926,"x_min":17,"x_max":897,"o":"m 857 689 l 572 689 q 538 758 571 733 q 446 783 504 783 q 346 722 346 783 q 363 690 346 706 q 409 665 379 675 q 464 647 439 654 q 520 634 489 640 q 557 626 551 628 q 657 597 615 611 q 747 558 699 583 q 826 501 796 532 q 876 422 856 469 q 897 314 897 374 q 781 69 897 160 q 465 -22 664 -22 q 139 73 258 -22 q 17 333 19 168 l 321 333 q 475 206 328 206 q 565 228 532 206 q 599 288 599 250 q 579 328 599 311 q 510 361 561 343 q 388 399 458 379 q 300 426 318 419 q 201 467 240 447 q 126 517 163 486 q 73 594 90 549 q 56 700 56 639 q 166 924 56 839 q 456 1010 276 1010 q 749 926 644 1010 q 857 689 854 842 z "},"T":{"ha":928,"x_min":35,"x_max":892,"o":"m 892 989 l 892 735 l 614 735 l 614 0 l 311 0 l 311 735 l 35 735 l 35 989 l 892 989 z "},"U":{"ha":1054,"x_min":78,"x_max":976,"o":"m 976 989 l 976 404 q 863 80 976 178 q 526 -18 750 -18 q 78 388 78 -18 l 78 989 l 381 989 l 381 383 q 417 268 381 306 q 532 231 453 231 q 674 383 674 231 l 674 989 l 976 989 z "},"V":{"ha":900,"x_min":-21,"x_max":921,"o":"m 921 989 l 617 0 l 275 0 l -21 989 l 286 989 l 336 813 q 449 303 425 500 q 563 811 475 490 l 611 989 l 921 989 z "},"W":{"ha":1338,"x_min":-7,"x_max":1343,"o":"m 1343 989 l 1072 0 l 776 0 l 731 242 q 665 643 681 508 q 606 244 658 539 l 563 0 l 264 0 l -7 989 l 292 989 l 342 765 q 414 290 399 507 q 488 758 426 446 l 533 989 l 801 989 l 842 792 q 921 290 908 457 q 1006 811 938 497 l 1044 989 l 1343 989 z "},"X":{"ha":1029,"x_min":-14,"x_max":1046,"o":"m 1007 989 l 692 525 l 1046 0 l 679 0 l 583 161 q 511 303 544 226 q 432 157 465 210 l 338 0 l -14 0 l 346 525 l 19 989 l 375 989 l 450 858 q 524 713 486 797 q 589 843 561 792 l 669 989 l 1007 989 z "},"Y":{"ha":926,"x_min":-40,"x_max":965,"o":"m 965 989 l 611 357 l 611 0 l 313 0 l 313 364 l -40 989 l 296 989 l 369 832 q 463 614 443 674 q 568 853 497 704 l 633 989 l 965 989 z "},"Z":{"ha":951,"x_min":33,"x_max":917,"o":"m 897 989 l 897 765 l 575 414 q 417 251 529 364 q 631 258 604 258 l 917 258 l 917 0 l 33 0 l 33 242 l 378 617 q 501 739 425 668 q 319 735 331 735 l 58 733 l 58 989 l 897 989 z "},"[":{"ha":565,"x_min":94,"x_max":551,"o":"m 551 989 l 551 776 l 346 776 l 346 -8 l 551 -8 l 551 -219 l 94 -219 l 94 989 l 551 989 z "},"\\":{"ha":592,"x_min":-12,"x_max":604,"o":"m 604 -24 l 344 -24 l -12 1015 l 247 1015 l 604 -24 z "},"]":{"ha":565,"x_min":14,"x_max":471,"o":"m 471 989 l 471 -219 l 14 -219 l 14 -8 l 219 -8 l 219 778 l 14 778 l 14 989 l 471 989 z "},"^":{"ha":833,"x_min":67,"x_max":767,"o":"m 67 356 l 311 961 l 524 961 l 767 356 l 547 356 l 417 710 l 288 356 l 67 356 z "},"_":{"ha":694,"x_min":0,"x_max":694,"o":"m 0 -174 l 0 -104 l 694 -104 l 694 -174 l 0 -174 z "},"`":{"ha":386,"x_min":-114,"x_max":315,"o":"m 175 989 l 315 788 l 125 788 l -114 989 l 175 989 z "},"a":{"ha":849,"x_min":32,"x_max":810,"o":"m 810 0 l 532 0 q 521 67 522 36 q 292 -24 431 -24 q 101 36 169 -24 q 32 201 32 96 q 54 296 32 256 q 99 358 76 336 q 178 397 122 379 q 257 418 233 414 q 349 432 281 422 q 365 435 360 433 q 399 438 372 436 q 440 443 425 440 q 474 453 454 446 q 504 474 494 460 q 514 507 514 488 q 424 569 514 569 q 351 554 374 569 q 322 497 329 539 l 65 497 q 424 738 75 738 q 763 604 700 738 q 782 474 782 564 q 781 347 782 431 q 779 204 779 263 q 810 0 779 61 m 515 326 q 388 285 485 306 q 313 210 313 268 q 333 157 313 176 q 390 138 354 138 q 499 193 465 138 q 515 283 515 221 l 515 326 z "},"b":{"ha":900,"x_min":76,"x_max":857,"o":"m 350 989 l 350 721 l 349 640 q 441 713 394 692 q 556 735 488 735 q 726 679 656 735 q 827 542 797 624 q 857 363 857 461 q 771 87 857 192 q 544 -18 685 -18 q 340 78 413 -18 l 340 0 l 76 0 l 76 989 l 350 989 m 461 526 q 373 484 404 526 q 342 364 342 442 q 463 200 342 200 q 581 363 581 200 q 549 483 581 439 q 461 526 517 526 z "},"c":{"ha":849,"x_min":46,"x_max":813,"o":"m 813 288 q 694 63 793 143 q 438 -18 594 -18 q 155 85 264 -18 q 46 353 46 188 q 154 628 46 524 q 439 733 263 733 q 695 654 594 733 q 807 446 796 575 l 544 446 q 510 514 539 489 q 442 539 482 539 q 321 351 321 539 q 440 182 321 182 q 550 288 533 182 l 813 288 z "},"d":{"ha":900,"x_min":43,"x_max":824,"o":"m 824 989 l 824 0 l 561 0 l 561 78 q 361 -18 488 -18 q 130 86 217 -18 q 43 364 43 190 q 126 633 43 532 q 346 735 208 735 q 550 639 468 735 l 550 989 l 824 989 m 439 525 q 319 360 319 525 q 439 200 319 200 q 528 242 497 200 q 560 361 560 283 q 528 483 560 440 q 439 525 497 525 z "},"e":{"ha":875,"x_min":43,"x_max":835,"o":"m 819 215 q 681 40 788 101 q 449 -21 575 -21 q 158 78 274 -21 q 43 350 43 176 q 155 626 43 518 q 439 735 267 735 q 727 622 619 735 q 835 319 835 510 l 835 299 l 307 299 q 347 193 310 231 q 447 156 383 156 q 563 215 524 156 l 819 215 m 567 436 q 440 558 556 558 q 308 436 329 558 l 567 436 z "},"f":{"ha":540,"x_min":8,"x_max":542,"o":"m 542 986 l 542 799 q 481 800 511 800 q 410 790 425 800 q 394 749 394 781 l 394 717 l 536 717 l 536 547 l 394 547 l 394 0 l 121 0 l 121 547 l 8 547 l 8 717 l 121 717 l 121 746 q 142 870 121 821 q 208 944 164 919 q 302 979 251 969 q 424 989 353 989 q 542 986 464 989 z "},"g":{"ha":875,"x_min":35,"x_max":806,"o":"m 806 717 l 806 101 q 710 -163 806 -85 q 425 -242 614 -242 q 296 -232 353 -242 q 186 -197 239 -222 q 100 -124 133 -172 q 58 -6 67 -75 l 332 -6 q 365 -56 343 -42 q 433 -69 388 -69 q 519 -37 499 -69 q 540 60 540 -4 l 540 142 q 338 51 465 51 q 115 142 196 51 q 35 392 35 232 q 117 644 35 550 q 340 738 200 738 q 457 713 411 738 q 540 631 503 688 l 540 717 l 806 717 m 422 533 q 333 496 364 533 q 301 389 301 458 q 333 281 301 319 q 424 243 365 243 q 515 281 483 243 q 546 389 546 319 q 514 496 546 458 q 422 533 482 533 z "},"h":{"ha":900,"x_min":78,"x_max":825,"o":"m 347 989 l 347 626 q 567 733 431 733 q 825 463 825 733 l 825 0 l 553 0 l 553 396 q 532 483 553 453 q 456 514 511 514 q 347 367 347 514 l 347 0 l 78 0 l 78 989 l 347 989 z "},"i":{"ha":438,"x_min":81,"x_max":356,"o":"m 356 989 l 356 797 l 81 797 l 81 989 l 356 989 m 356 717 l 356 0 l 81 0 l 81 717 l 356 717 z "},"j":{"ha":438,"x_min":-39,"x_max":360,"o":"m 360 717 l 360 17 q 342 -111 360 -61 q 287 -187 325 -161 q 200 -223 249 -214 q 76 -232 151 -232 q 19 -231 57 -232 q -39 -231 -19 -231 l -39 -12 q -22 -14 -31 -14 q 65 -1 46 -14 q 83 74 83 13 l 83 717 l 360 717 m 360 989 l 360 793 l 83 793 l 83 989 l 360 989 z "},"k":{"ha":849,"x_min":74,"x_max":868,"o":"m 826 717 l 572 446 l 868 0 l 543 0 l 393 263 l 346 215 l 346 0 l 74 0 l 74 989 l 346 989 l 346 985 l 346 981 l 346 976 l 346 972 l 346 968 l 346 964 l 346 960 l 346 956 l 346 951 l 346 947 l 346 943 l 346 939 l 346 935 l 346 931 l 346 926 l 346 922 l 346 918 l 346 914 l 346 910 l 346 906 l 346 901 l 346 897 l 346 893 l 346 889 l 346 885 l 346 881 l 346 876 l 346 872 l 346 868 l 346 864 l 346 860 l 346 856 l 346 851 l 346 847 l 346 843 l 346 839 l 346 835 l 346 831 l 346 826 l 346 822 l 346 818 l 346 814 l 346 810 l 346 806 l 346 801 l 346 797 l 346 793 l 346 789 l 346 785 l 346 781 l 346 776 l 346 772 l 346 768 l 346 764 l 346 760 l 346 756 l 346 751 l 346 747 l 346 743 l 346 739 l 346 735 l 346 731 l 346 726 l 346 722 l 346 718 l 346 714 l 346 710 l 346 706 l 346 701 l 346 697 l 346 693 l 346 689 l 346 685 l 346 681 l 346 676 l 346 672 l 346 668 l 346 664 l 346 660 l 346 656 l 346 651 l 346 647 l 346 643 l 346 639 l 346 635 l 346 631 l 346 626 l 346 622 l 346 618 l 346 614 l 346 610 l 346 606 l 346 601 l 346 597 l 346 593 l 346 589 l 346 585 l 346 581 l 346 576 l 346 572 l 346 569 l 346 565 l 346 553 l 342 497 q 394 568 368 536 l 519 717 l 826 717 z "},"l":{"ha":438,"x_min":81,"x_max":356,"o":"m 356 989 l 356 0 l 81 0 l 81 989 l 356 989 z "},"m":{"ha":1338,"x_min":78,"x_max":1263,"o":"m 342 717 l 342 625 q 567 738 419 738 q 769 624 714 738 q 1000 738 850 738 q 1192 665 1121 738 q 1263 471 1263 593 l 1263 0 l 985 0 l 985 404 q 897 519 985 519 q 806 399 806 519 l 806 0 l 532 0 l 532 414 q 446 524 532 524 q 353 399 353 524 l 353 0 l 78 0 l 78 717 l 342 717 z "},"n":{"ha":900,"x_min":76,"x_max":826,"o":"m 340 717 l 340 628 q 568 736 428 736 q 765 658 704 736 q 826 453 826 581 l 826 0 l 550 0 l 550 401 q 457 515 550 515 q 351 394 351 515 l 351 0 l 76 0 l 76 717 l 340 717 z "},"o":{"ha":875,"x_min":43,"x_max":831,"o":"m 440 738 q 722 633 614 738 q 831 361 831 529 q 721 85 831 192 q 438 -21 611 -21 q 153 85 263 -21 q 43 358 43 190 q 153 632 43 526 q 440 738 264 738 m 435 539 q 318 358 318 539 q 438 176 318 176 q 556 361 556 176 q 435 539 556 539 z "},"p":{"ha":900,"x_min":76,"x_max":857,"o":"m 340 717 l 340 639 q 546 735 414 735 q 772 630 686 735 q 857 353 857 525 q 775 83 857 183 q 556 -18 693 -18 q 350 76 436 -18 l 350 -231 l 76 -231 l 76 717 l 340 717 m 461 515 q 342 351 342 515 q 463 190 342 190 q 582 353 582 190 q 461 515 582 515 z "},"q":{"ha":900,"x_min":43,"x_max":824,"o":"m 824 717 l 824 -231 l 551 -231 l 551 78 q 344 -18 474 -18 q 126 83 208 -18 q 43 351 43 183 q 129 629 43 524 q 356 735 215 735 q 561 640 483 735 l 561 717 l 824 717 m 436 517 q 318 349 318 517 q 439 190 318 190 q 560 353 560 190 q 436 517 560 517 z "},"r":{"ha":617,"x_min":72,"x_max":618,"o":"m 618 724 l 618 483 q 517 503 560 503 q 390 456 433 503 q 346 325 346 410 l 346 0 l 72 0 l 72 717 l 335 717 l 333 606 q 422 704 372 672 q 547 736 472 736 q 618 724 581 736 z "},"s":{"ha":797,"x_min":36,"x_max":761,"o":"m 740 507 l 492 507 q 464 560 485 546 q 394 574 443 574 q 319 531 319 574 q 331 503 319 515 q 367 484 343 492 q 407 473 390 476 q 450 466 424 469 q 478 463 476 463 q 560 445 528 453 q 635 419 593 438 q 701 379 676 401 q 744 319 726 357 q 761 233 761 282 q 665 49 761 115 q 400 -18 569 -18 q 36 239 57 -18 l 296 239 q 327 174 301 194 q 406 154 353 154 q 469 169 446 154 q 492 211 492 185 q 469 249 492 238 q 385 274 447 260 q 351 281 364 278 q 163 335 210 311 q 51 511 51 389 q 141 679 51 621 q 400 738 231 738 q 638 687 546 738 q 740 507 729 636 z "},"t":{"ha":565,"x_min":10,"x_max":550,"o":"m 550 717 l 550 546 l 401 546 l 401 290 q 417 212 401 232 q 493 192 433 192 q 550 194 532 192 l 550 -4 q 406 -10 467 -10 q 191 43 254 -10 q 128 225 128 96 l 128 546 l 10 546 l 10 717 l 128 717 l 128 938 l 401 938 l 401 717 l 550 717 z "},"u":{"ha":900,"x_min":78,"x_max":825,"o":"m 825 717 l 825 0 l 558 0 l 558 92 q 339 -21 488 -21 q 78 274 78 -21 l 78 717 l 356 717 l 356 304 q 449 207 356 207 q 531 246 511 207 q 550 353 550 285 l 550 717 l 825 717 z "},"v":{"ha":772,"x_min":-12,"x_max":783,"o":"m 783 717 l 549 0 l 226 0 l -12 717 l 278 717 l 335 506 q 389 242 374 360 q 442 489 399 335 l 506 717 l 783 717 z "},"w":{"ha":1208,"x_min":-8,"x_max":1215,"o":"m 1215 717 l 989 0 l 710 0 l 649 235 q 603 492 621 342 q 556 235 583 353 l 499 0 l 218 0 l -8 717 l 276 717 l 328 515 q 382 232 361 379 q 435 526 407 401 l 476 717 l 732 717 l 779 507 q 828 235 808 376 q 879 503 846 368 l 932 717 l 1215 717 z "},"x":{"ha":772,"x_min":-18,"x_max":789,"o":"m 758 717 l 535 378 l 789 0 l 488 0 l 435 86 q 386 190 413 122 q 333 83 356 119 l 285 0 l -18 0 l 233 378 l 8 717 l 308 717 l 346 650 q 389 564 375 594 q 435 661 421 636 l 467 717 l 758 717 z "},"y":{"ha":772,"x_min":-19,"x_max":788,"o":"m 788 717 l 525 -17 q 420 -185 482 -137 q 232 -232 358 -232 l 53 -232 l 53 -12 q 117 -14 82 -14 q 153 -12 139 -14 q 185 -6 167 -11 q 213 12 203 -1 q 222 46 222 25 q 214 81 222 60 l -19 717 l 272 717 l 353 433 q 388 267 372 364 q 426 442 413 394 l 506 717 l 788 717 z "},"z":{"ha":772,"x_min":29,"x_max":743,"o":"m 713 717 l 713 508 l 510 321 q 369 203 469 283 q 490 210 444 210 l 743 210 l 743 0 l 29 0 l 29 211 l 228 388 q 379 514 315 464 q 290 510 317 510 l 60 510 l 60 717 l 713 717 z "},"{":{"ha":565,"x_min":26,"x_max":540,"o":"m 26 446 q 142 496 103 461 q 182 603 182 531 l 182 724 q 203 836 182 789 q 253 910 224 883 q 335 955 283 938 q 431 978 386 972 q 540 989 475 985 l 540 867 q 406 707 406 849 l 406 644 q 358 460 406 522 q 192 385 310 397 q 357 310 308 372 q 406 125 406 247 l 406 63 q 540 -97 406 -79 l 540 -219 q 384 -201 446 -215 q 274 -156 322 -187 q 203 -68 225 -125 q 182 75 182 -11 l 182 167 q 26 324 182 300 l 26 446 z "},"|":{"ha":308,"x_min":42,"x_max":267,"o":"m 42 -297 l 42 1092 l 267 1092 l 267 -297 l 42 -297 z "},"}":{"ha":565,"x_min":26,"x_max":540,"o":"m 540 324 q 385 167 385 300 l 385 75 q 363 -68 385 -11 q 293 -156 342 -125 q 183 -201 244 -187 q 26 -219 121 -215 l 26 -97 q 161 63 161 -79 l 161 125 q 210 310 161 247 q 375 385 258 372 q 209 460 257 397 q 161 644 161 522 l 161 707 q 26 867 161 849 l 26 989 q 136 978 92 985 q 232 955 181 972 q 313 910 283 938 q 364 836 343 883 q 385 724 385 789 l 385 603 q 424 496 385 531 q 540 446 464 461 l 540 324 z "},"~":{"ha":833,"x_min":1,"x_max":833,"o":"m 135 196 l 1 196 q 233 524 42 524 q 389 490 301 524 q 596 426 553 426 q 659 452 635 426 q 699 538 683 478 l 833 538 q 804 398 828 468 q 726 269 781 328 q 599 210 671 210 q 403 258 532 210 q 367 272 392 263 q 331 286 343 282 q 301 297 319 290 q 266 305 282 303 q 235 307 250 307 q 135 196 164 307 z "},"£":{"ha":928,"x_min":63,"x_max":890,"o":"m 850 658 l 583 658 l 583 665 q 489 783 583 783 q 428 762 451 783 q 404 707 404 740 q 427 628 404 678 q 453 572 450 579 l 603 572 l 603 401 l 500 401 q 504 365 504 376 q 428 217 504 279 q 518 233 471 233 q 599 222 543 233 q 660 214 639 214 q 782 283 735 214 l 890 88 q 644 -18 797 -18 q 458 13 583 -18 q 340 31 385 31 q 186 -24 264 31 l 81 132 q 232 340 232 233 q 219 401 232 369 l 63 401 l 63 572 l 115 571 l 161 568 q 104 725 104 639 q 207 927 104 851 q 479 1003 310 1003 q 850 658 838 1003 z "},"¤":{"ha":928,"x_min":96,"x_max":828,"o":"m 828 242 l 707 119 l 614 213 q 463 174 536 174 q 310 213 390 174 l 217 119 l 96 242 l 189 335 q 150 486 150 404 q 189 638 150 558 l 96 731 l 217 853 l 311 760 q 460 799 401 799 q 613 758 538 799 l 706 851 l 826 731 l 735 639 q 775 485 775 549 q 735 333 775 410 l 828 242 m 575 488 q 542 566 575 533 q 463 599 510 599 q 383 566 417 599 q 350 488 350 533 q 383 408 350 440 q 463 375 415 375 q 542 408 510 375 q 575 488 575 440 z "},"¦":{"ha":308,"x_min":50,"x_max":258,"o":"m 50 -35 l 50 386 l 258 386 l 258 -35 l 50 -35 m 50 601 l 50 1021 l 258 1021 l 258 601 l 50 601 z "},"§":{"ha":926,"x_min":50,"x_max":879,"o":"m 806 735 l 571 735 q 485 815 567 815 q 430 799 450 815 q 410 757 410 783 q 413 742 410 749 q 421 728 415 735 q 433 715 426 721 q 451 703 439 710 q 472 692 463 697 q 497 681 481 688 q 524 669 513 674 q 556 657 536 665 q 590 643 576 649 q 639 624 603 638 q 691 603 675 610 q 738 581 707 596 q 784 555 768 567 q 822 524 800 543 q 853 484 843 504 q 872 436 864 464 q 879 378 879 408 q 841 251 879 304 q 735 176 803 199 q 807 21 807 113 q 713 -176 807 -103 q 464 -250 619 -250 q 222 -181 321 -250 q 124 25 124 -112 l 124 44 l 358 44 q 461 -44 364 -44 q 523 -27 500 -44 q 546 21 546 -10 q 542 43 546 33 q 530 62 539 53 q 512 77 521 71 q 485 91 503 83 q 456 103 468 99 q 420 118 444 108 q 381 133 396 128 q 327 154 367 139 q 269 176 288 169 q 215 200 250 183 q 162 230 181 217 q 118 265 143 243 q 81 308 93 286 q 59 359 68 329 q 50 422 50 389 q 92 548 50 496 q 204 626 133 600 q 149 764 149 686 q 242 942 149 872 q 481 1011 336 1011 q 713 935 622 1011 q 806 735 803 858 m 335 501 q 299 488 313 501 q 285 451 285 474 q 287 435 285 442 q 296 421 289 428 q 307 410 303 414 q 324 399 311 406 q 342 390 336 393 q 366 381 349 388 q 390 371 383 374 l 539 308 q 599 289 582 289 q 633 302 618 289 q 649 338 649 315 q 643 358 649 349 q 631 374 638 368 q 613 388 625 381 q 593 399 600 396 q 571 408 586 401 q 553 415 556 414 l 403 479 q 335 501 351 501 z "},"©":{"ha":1111,"x_min":26,"x_max":1067,"o":"m 914 863 q 990 787 914 863 q 1067 496 1067 711 q 915 128 1067 281 q 547 -24 763 -24 q 179 128 332 -24 q 26 496 26 281 q 178 863 26 711 q 546 1015 331 1015 q 914 863 761 1015 m 831 212 q 890 270 831 212 q 949 496 949 329 q 831 780 949 663 q 546 897 713 897 q 262 780 379 897 q 144 496 144 663 q 262 212 144 329 q 546 94 379 94 q 831 212 713 94 m 557 190 q 351 278 432 190 q 269 496 269 365 q 347 719 269 632 q 547 806 424 806 q 727 740 654 806 q 808 565 800 675 l 663 565 q 554 671 646 671 q 473 626 504 671 q 442 499 442 581 q 474 370 442 415 q 563 325 506 325 q 631 349 608 325 q 664 426 653 372 l 810 426 q 728 254 797 318 q 557 190 658 190 z "},"«":{"ha":617,"x_min":61,"x_max":556,"o":"m 556 669 l 556 456 l 450 369 l 556 285 l 556 67 l 333 243 l 333 493 l 556 669 m 283 668 l 283 458 l 176 372 l 283 283 l 283 68 l 61 246 l 61 493 l 283 668 z "},"¬":{"ha":833,"x_min":39,"x_max":786,"o":"m 39 418 l 39 631 l 786 631 l 786 86 l 578 86 l 578 418 l 39 418 z "},"®":{"ha":556,"x_min":21,"x_max":532,"o":"m 96 941 q 133 978 96 941 q 276 1015 171 1015 q 457 940 382 1015 q 532 760 532 865 q 456 580 532 654 q 276 506 381 506 q 96 581 171 506 q 21 760 21 656 q 96 941 21 867 m 419 902 q 389 932 419 902 q 276 961 360 961 q 134 901 193 961 q 75 760 75 842 q 134 618 75 676 q 276 560 193 560 q 419 619 360 560 q 478 760 478 678 q 419 902 478 843 m 164 903 l 299 903 q 372 881 344 903 q 400 817 400 858 q 350 749 400 765 q 385 718 378 735 q 396 667 393 701 l 397 650 q 403 617 401 621 l 322 617 q 317 656 317 633 q 307 704 317 693 q 264 715 297 715 l 249 715 l 249 617 l 164 617 l 164 903 m 249 778 l 267 778 q 315 811 315 778 q 268 842 315 842 l 249 842 l 249 778 z "},"°":{"ha":556,"x_min":39,"x_max":519,"o":"m 110 901 q 145 936 110 901 q 279 971 181 971 q 449 901 378 971 q 519 732 519 831 q 449 562 519 632 q 279 492 378 492 q 110 562 181 492 q 39 732 39 632 q 110 901 39 831 m 225 786 q 214 775 225 786 q 203 732 203 764 q 226 677 203 700 q 279 654 249 654 q 333 677 310 654 q 356 732 356 700 q 333 786 356 764 q 279 808 311 808 q 225 786 247 808 z "},"±":{"ha":833,"x_min":42,"x_max":790,"o":"m 299 261 l 299 424 l 43 424 l 43 640 l 299 640 l 299 794 l 535 794 l 535 640 l 790 640 l 790 425 l 535 425 l 535 261 l 299 261 m 42 0 l 42 219 l 789 219 l 789 0 l 42 0 z "},"µ":{"ha":900,"x_min":79,"x_max":826,"o":"m 826 717 l 826 0 l 560 0 l 560 76 q 440 -21 518 -21 q 353 25 383 -21 l 357 -232 l 79 -232 l 79 717 l 357 717 l 357 329 q 379 235 357 264 q 451 206 401 206 q 550 335 550 206 l 550 717 l 826 717 z "},"¶":{"ha":861,"x_min":-3,"x_max":829,"o":"m 829 856 l 756 856 l 756 -231 l 581 -231 l 581 856 l 454 856 l 454 -231 l 279 -231 l 279 325 q 74 415 151 328 q -3 640 -3 501 q 99 897 -3 806 q 364 989 201 989 l 829 989 l 829 856 z "},"·":{"ha":464,"x_min":89,"x_max":375,"o":"m 375 538 l 375 253 l 89 253 l 89 538 l 375 538 z "},"»":{"ha":617,"x_min":61,"x_max":557,"o":"m 333 672 l 557 493 l 557 244 l 333 67 l 333 279 l 443 365 l 333 456 l 333 672 m 61 669 l 283 493 l 283 247 l 61 71 l 61 278 l 169 367 l 61 453 l 61 669 z "},"÷":{"ha":833,"x_min":29,"x_max":804,"o":"m 29 479 l 804 479 l 804 247 l 29 247 l 29 479 m 538 763 l 538 529 l 293 529 l 293 763 l 538 763 m 538 197 l 538 -36 l 293 -36 l 293 197 l 538 197 z "},"ƒ":{"ha":928,"x_min":53,"x_max":807,"o":"m 736 572 l 707 406 l 574 406 l 507 32 q 404 -189 478 -133 q 157 -244 331 -244 q 53 -240 124 -244 l 85 -49 q 117 -50 100 -50 q 192 -39 175 -50 q 217 18 208 -28 l 289 406 l 161 406 l 189 572 l 319 572 l 349 731 q 450 947 378 890 q 679 1004 522 1004 q 807 1001 764 1004 l 774 808 q 724 810 754 810 q 680 806 696 810 q 654 786 664 801 q 642 762 644 771 q 633 722 639 753 q 631 708 632 713 l 607 572 l 736 572 z "},"Ё":{"ha":978,"x_min":82,"x_max":915,"o":"m 901 989 l 901 749 l 381 749 l 381 625 l 853 625 l 853 396 l 381 396 l 381 251 l 915 251 l 915 0 l 82 0 l 82 989 l 901 989 m 772 1260 l 772 1068 l 529 1068 l 529 1260 l 772 1260 m 454 1260 l 454 1068 l 210 1068 l 210 1260 l 454 1260 z "},"Ђ":{"ha":1190,"x_min":33,"x_max":1156,"o":"m 701 92 l 736 92 q 829 139 799 92 q 860 247 860 186 q 827 355 860 313 q 729 397 794 397 q 628 353 663 397 q 594 231 594 308 l 594 0 l 285 0 l 285 735 l 33 735 l 33 989 l 900 989 l 900 735 l 594 735 l 594 536 q 681 599 624 571 q 799 626 738 626 q 1060 525 964 626 q 1156 261 1156 424 q 1056 -24 1156 90 q 764 -137 957 -137 l 701 -137 l 701 92 z "},"Ѓ":{"ha":849,"x_min":88,"x_max":831,"o":"m 693 1265 l 446 1064 l 264 1064 l 400 1265 l 693 1265 m 392 735 l 392 0 l 88 0 l 88 989 l 831 989 l 831 735 l 392 735 z "},"Є":{"ha":1054,"x_min":56,"x_max":1010,"o":"m 1010 383 q 867 83 994 189 q 551 -24 739 -24 q 192 125 328 -24 q 56 497 56 274 q 195 866 56 718 q 557 1014 335 1014 q 863 906 735 1014 q 1004 633 990 797 l 710 633 q 551 763 679 763 q 378 615 421 763 l 640 615 l 640 396 l 372 396 q 437 275 390 318 q 551 232 483 232 q 710 383 685 232 l 1010 383 z "},"Ѕ":{"ha":926,"x_min":17,"x_max":897,"o":"m 857 689 l 572 689 q 538 758 571 733 q 446 783 504 783 q 346 722 346 783 q 363 690 346 706 q 409 665 379 675 q 464 647 439 654 q 520 634 489 640 q 557 626 551 628 q 657 597 615 611 q 747 558 699 583 q 826 501 796 532 q 876 422 856 469 q 897 314 897 374 q 781 69 897 160 q 465 -22 664 -22 q 139 73 258 -22 q 17 333 19 168 l 321 333 q 475 206 328 206 q 565 228 532 206 q 599 288 599 250 q 579 328 599 311 q 510 361 561 343 q 388 399 458 379 q 300 426 318 419 q 201 467 240 447 q 126 517 163 486 q 73 594 90 549 q 56 700 56 639 q 166 924 56 839 q 456 1010 276 1010 q 749 926 644 1010 q 857 689 854 842 z "},"І":{"ha":463,"x_min":81,"x_max":383,"o":"m 383 989 l 383 0 l 81 0 l 81 989 l 383 989 z "},"Ї":{"ha":463,"x_min":-50,"x_max":513,"o":"m 383 989 l 383 0 l 81 0 l 81 989 l 383 989 m 513 1260 l 513 1068 l 269 1068 l 269 1260 l 513 1260 m 194 1260 l 194 1068 l -50 1068 l -50 1260 l 194 1260 z "},"Ј":{"ha":849,"x_min":44,"x_max":776,"o":"m 776 989 l 776 331 q 681 67 776 157 q 410 -24 586 -24 q 138 72 232 -24 q 44 342 44 168 l 44 415 l 317 415 l 317 386 q 317 360 317 382 q 317 332 317 339 q 318 306 317 325 q 323 278 319 286 q 332 256 326 269 q 347 235 338 242 q 369 224 356 229 q 399 219 382 219 q 456 242 438 219 q 474 317 474 265 l 474 989 l 776 989 z "},"Љ":{"ha":1528,"x_min":11,"x_max":1492,"o":"m 1492 347 q 1388 92 1492 183 q 1083 0 1283 0 l 658 0 l 658 735 l 481 735 l 481 715 q 472 389 481 468 q 243 -3 440 60 q 133 -18 193 -18 q 11 4 65 -18 l 11 239 q 71 224 33 224 q 115 237 96 224 q 145 277 133 250 q 164 333 157 304 q 174 406 171 361 q 178 482 178 450 q 179 564 179 514 l 179 989 l 961 989 l 961 654 l 1101 654 q 1395 574 1299 654 q 1492 347 1492 494 m 1197 335 q 1074 432 1197 432 l 961 432 l 961 226 l 1072 226 q 1197 335 1197 226 z "},"Њ":{"ha":1528,"x_min":81,"x_max":1492,"o":"m 1492 347 q 1388 92 1492 183 q 1083 0 1283 0 l 658 0 l 658 396 l 385 396 l 385 0 l 81 0 l 81 989 l 385 989 l 385 654 l 658 654 l 658 989 l 961 989 l 961 654 l 1101 654 q 1395 574 1299 654 q 1492 347 1492 494 m 1197 333 q 1074 431 1197 431 l 961 431 l 961 225 l 1072 225 q 1197 333 1197 225 z "},"Ћ":{"ha":1190,"x_min":33,"x_max":1171,"o":"m 594 0 l 285 0 l 285 735 l 33 735 l 33 989 l 900 989 l 900 735 l 594 735 l 594 606 q 664 619 611 613 q 743 626 717 626 q 868 619 814 626 q 982 588 922 613 q 1081 524 1042 564 q 1145 412 1119 483 q 1171 242 1171 340 l 1171 0 l 860 0 l 860 219 q 715 397 860 397 q 594 376 654 397 l 594 0 z "},"Ќ":{"ha":1081,"x_min":86,"x_max":1094,"o":"m 1038 989 l 679 604 l 1094 0 l 715 0 l 474 385 l 385 292 l 385 0 l 86 0 l 86 989 l 386 989 l 385 789 q 381 638 385 767 l 663 989 l 1038 989 m 776 1265 l 529 1064 l 347 1064 l 483 1265 l 776 1265 z "},"Ў":{"ha":926,"x_min":-24,"x_max":949,"o":"m 293 340 l -24 989 l 308 989 l 415 700 q 464 529 447 614 q 510 700 485 633 l 617 989 l 949 989 l 572 181 q 453 33 531 90 q 304 -25 376 -25 q 194 -15 260 -25 q 111 7 128 -4 l 111 244 q 156 226 121 236 q 224 215 192 215 q 282 234 257 215 q 307 288 307 253 q 293 340 307 311 m 200 1260 l 350 1260 q 390 1189 358 1207 q 469 1171 421 1171 q 546 1191 521 1171 q 581 1260 571 1211 l 726 1260 q 651 1085 722 1144 q 465 1025 581 1025 q 276 1081 342 1025 q 200 1260 210 1136 z "},"Џ":{"ha":1054,"x_min":81,"x_max":974,"o":"m 669 0 l 669 -231 l 388 -231 l 388 0 l 81 0 l 81 989 l 385 989 l 385 258 l 671 258 l 671 989 l 974 989 l 974 0 l 669 0 z "},"А":{"ha":1003,"x_min":-14,"x_max":1015,"o":"m 651 989 l 1015 0 l 708 0 l 660 140 l 342 140 l 293 0 l -14 0 l 351 989 l 651 989 m 593 353 l 540 522 q 503 672 522 582 q 461 521 481 583 q 407 353 440 453 l 593 353 z "},"Б":{"ha":1029,"x_min":82,"x_max":978,"o":"m 525 413 l 376 413 l 376 231 l 547 231 q 647 249 611 231 q 683 322 683 268 q 646 396 683 379 q 525 413 608 413 m 376 757 l 376 626 l 599 626 q 701 619 651 626 q 802 590 750 611 q 892 535 854 568 q 953 449 929 503 q 978 325 978 394 q 871 74 978 147 q 554 0 764 0 l 82 0 l 82 989 l 900 989 l 900 757 l 376 757 z "},"В":{"ha":1029,"x_min":82,"x_max":981,"o":"m 82 989 l 581 989 q 932 742 932 989 q 808 543 932 617 q 981 300 981 483 q 949 156 981 217 q 863 63 918 96 q 743 15 807 29 q 601 0 679 0 l 82 0 l 82 989 m 376 764 l 376 611 l 547 611 q 615 631 590 611 q 639 686 639 651 q 533 764 639 764 l 376 764 m 376 421 l 376 235 l 564 235 q 679 326 679 235 q 564 421 679 421 l 376 421 z "},"Г":{"ha":849,"x_min":88,"x_max":831,"o":"m 392 735 l 392 0 l 88 0 l 88 989 l 831 989 l 831 735 l 392 735 z "},"Д":{"ha":1117,"x_min":4,"x_max":1104,"o":"m 224 989 l 982 989 l 982 253 l 1104 253 l 1104 -231 l 829 -231 l 829 0 l 281 0 l 281 -231 l 4 -231 l 4 253 l 106 253 q 193 533 163 360 q 224 900 224 707 l 224 989 m 685 253 l 685 740 l 497 740 l 497 657 q 468 442 497 571 q 407 253 439 314 l 685 253 z "},"Е":{"ha":978,"x_min":82,"x_max":915,"o":"m 901 989 l 901 749 l 381 749 l 381 625 l 853 625 l 853 396 l 381 396 l 381 251 l 915 251 l 915 0 l 82 0 l 82 989 l 901 989 z "},"Ж":{"ha":1579,"x_min":13,"x_max":1569,"o":"m 640 303 l 569 388 l 382 0 l 13 0 l 360 628 l 50 989 l 399 989 l 640 674 l 640 989 l 943 989 l 943 674 l 1185 989 l 1533 989 l 1224 628 l 1569 0 l 1200 0 l 1013 388 l 943 303 l 943 0 l 640 0 l 640 303 z "},"З":{"ha":939,"x_min":17,"x_max":904,"o":"m 904 313 q 779 60 904 143 q 465 -22 654 -22 q 139 73 258 -22 q 17 333 19 168 l 321 333 q 460 208 328 208 q 567 240 529 208 q 606 324 606 271 q 592 378 606 357 q 553 408 579 399 q 505 419 528 417 q 447 422 482 422 q 415 422 436 422 q 383 421 394 421 l 383 610 q 432 608 394 608 q 477 608 465 608 q 519 613 489 608 q 563 626 549 618 q 589 653 576 635 q 601 700 601 672 q 566 767 601 742 q 471 792 531 792 q 373 765 411 792 q 333 694 335 739 l 49 694 q 165 931 50 846 q 476 1015 281 1015 q 766 944 658 1015 q 874 739 874 874 q 832 615 874 675 q 728 536 790 556 q 852 458 800 519 q 904 313 904 396 z "},"И":{"ha":1054,"x_min":81,"x_max":974,"o":"m 974 989 l 974 0 l 685 0 l 685 372 q 693 615 685 528 l 406 0 l 81 0 l 81 989 l 371 989 l 371 614 q 364 379 371 501 l 650 989 l 974 989 z "},"Й":{"ha":1054,"x_min":81,"x_max":974,"o":"m 263 1260 l 413 1260 q 452 1189 421 1207 q 532 1171 483 1171 q 608 1191 583 1171 q 643 1260 633 1211 l 789 1260 q 714 1085 785 1144 q 528 1025 643 1025 q 338 1081 404 1025 q 263 1260 272 1136 m 974 989 l 974 0 l 685 0 l 685 372 q 693 615 685 528 l 406 0 l 81 0 l 81 989 l 371 989 l 371 614 q 364 379 371 501 l 650 989 l 974 989 z "},"К":{"ha":1081,"x_min":86,"x_max":1094,"o":"m 1038 989 l 679 604 l 1094 0 l 715 0 l 474 385 l 385 292 l 385 0 l 86 0 l 86 989 l 386 989 l 385 789 q 381 638 385 767 l 663 989 l 1038 989 z "},"Л":{"ha":1082,"x_min":33,"x_max":982,"o":"m 200 989 l 982 989 l 982 0 l 681 0 l 681 735 l 499 735 l 499 676 q 475 289 499 408 q 154 -18 401 -11 q 33 4 88 -18 l 33 239 q 93 224 56 224 q 137 237 118 224 q 167 277 156 250 q 185 333 178 304 q 195 405 192 361 q 199 481 199 449 q 200 564 200 514 l 200 989 z "},"М":{"ha":1311,"x_min":83,"x_max":1229,"o":"m 1229 989 l 1229 0 l 944 0 l 944 149 q 956 711 944 411 l 769 0 l 543 0 l 356 711 q 367 190 365 486 l 368 0 l 83 0 l 83 989 l 518 989 l 582 732 q 658 357 632 525 q 742 739 679 476 l 803 989 l 1229 989 z "},"Н":{"ha":1054,"x_min":81,"x_max":974,"o":"m 974 989 l 974 0 l 671 0 l 671 390 l 385 390 l 385 0 l 81 0 l 81 989 l 385 989 l 385 657 l 671 657 l 671 989 l 974 989 z "},"О":{"ha":1106,"x_min":51,"x_max":1054,"o":"m 560 1015 q 918 872 782 1015 q 1054 494 1054 728 q 917 119 1054 263 q 557 -24 781 -24 q 190 119 329 -24 q 51 496 51 261 q 190 873 51 731 q 560 1015 329 1015 m 556 772 q 412 700 464 772 q 360 500 360 628 q 411 295 360 368 q 557 222 463 222 q 699 295 650 222 q 747 508 747 368 q 697 702 747 632 q 556 772 646 772 z "},"П":{"ha":1054,"x_min":81,"x_max":974,"o":"m 974 989 l 974 0 l 671 0 l 671 735 l 385 735 l 385 0 l 81 0 l 81 989 l 974 989 z "},"Р":{"ha":978,"x_min":81,"x_max":943,"o":"m 81 989 l 511 989 q 943 638 943 989 q 841 390 943 474 q 571 306 739 306 l 382 306 l 382 0 l 81 0 l 81 989 m 382 746 l 382 536 l 528 536 q 653 640 653 536 q 522 746 653 746 l 382 746 z "},"С":{"ha":1054,"x_min":56,"x_max":1010,"o":"m 1010 390 q 869 85 997 193 q 551 -24 740 -24 q 192 125 328 -24 q 56 497 56 274 q 195 866 56 718 q 557 1014 335 1014 q 866 902 738 1014 q 1006 624 994 790 l 711 624 q 657 726 699 690 q 551 763 615 763 q 440 720 485 763 q 378 621 394 678 q 361 497 361 564 q 412 303 361 374 q 551 232 463 232 q 711 390 688 232 l 1010 390 z "},"Т":{"ha":928,"x_min":35,"x_max":892,"o":"m 892 989 l 892 735 l 614 735 l 614 0 l 311 0 l 311 735 l 35 735 l 35 989 l 892 989 z "},"У":{"ha":926,"x_min":-24,"x_max":949,"o":"m 293 340 l -24 989 l 308 989 l 415 700 q 464 529 447 614 q 510 700 485 633 l 617 989 l 949 989 l 572 181 q 453 33 531 90 q 304 -25 376 -25 q 194 -15 260 -25 q 111 7 128 -4 l 111 244 q 156 226 121 236 q 224 215 192 215 q 282 234 257 215 q 307 288 307 253 q 293 340 307 311 z "},"Ф":{"ha":1301,"x_min":51,"x_max":1250,"o":"m 1250 501 q 1132 208 1250 321 q 801 96 1014 96 l 801 0 l 504 0 l 504 96 q 175 209 299 96 q 51 499 51 322 q 77 638 51 571 q 155 763 103 706 q 297 856 207 821 q 504 890 388 890 l 504 989 l 801 989 l 801 890 q 1130 779 1010 890 q 1250 501 1250 668 m 947 499 q 912 621 947 565 q 794 676 876 676 l 794 313 q 872 331 840 313 q 919 381 904 350 q 941 440 935 411 q 947 499 947 468 m 511 311 l 511 676 q 392 622 429 676 q 354 499 354 567 q 392 367 354 422 q 511 311 429 311 z "},"Х":{"ha":1029,"x_min":-14,"x_max":1046,"o":"m 1007 989 l 692 525 l 1046 0 l 679 0 l 583 161 q 511 303 544 226 q 432 157 465 210 l 338 0 l -14 0 l 346 525 l 19 989 l 375 989 l 450 858 q 524 713 486 797 q 589 843 561 792 l 669 989 l 1007 989 z "},"Ц":{"ha":1081,"x_min":71,"x_max":1072,"o":"m 950 989 l 950 258 l 1072 258 l 1072 -231 l 790 -231 l 790 0 l 71 0 l 71 989 l 375 989 l 375 258 l 647 258 l 647 989 l 950 989 z "},"Ч":{"ha":1003,"x_min":63,"x_max":925,"o":"m 469 358 q 157 450 251 358 q 63 746 63 542 l 63 989 l 364 989 l 364 788 q 392 642 364 689 q 499 594 419 594 q 570 602 529 594 q 624 615 611 610 l 624 989 l 925 989 l 925 0 l 624 0 l 624 382 q 551 367 611 376 q 469 358 492 358 z "},"Ш":{"ha":1521,"x_min":81,"x_max":1440,"o":"m 81 0 l 81 989 l 378 989 l 378 257 l 611 257 l 611 989 l 910 989 l 910 257 l 1143 257 l 1143 989 l 1440 989 l 1440 0 l 81 0 z "},"Щ":{"ha":1568,"x_min":72,"x_max":1554,"o":"m 1554 -231 l 1272 -231 l 1272 0 l 72 0 l 72 989 l 369 989 l 369 257 l 603 257 l 603 989 l 901 989 l 901 257 l 1135 257 l 1135 989 l 1432 989 l 1432 258 l 1554 258 l 1554 -231 z "},"Ъ":{"ha":1167,"x_min":21,"x_max":1136,"o":"m 275 735 l 21 735 l 21 989 l 578 989 l 578 681 l 746 681 q 1040 594 943 681 q 1136 347 1136 507 q 1032 92 1136 183 q 728 0 928 0 l 275 0 l 275 735 m 842 344 q 718 456 842 456 l 578 456 l 578 236 l 717 236 q 842 344 842 236 z "},"Ы":{"ha":1404,"x_min":81,"x_max":1324,"o":"m 383 989 l 383 681 l 510 681 q 803 594 707 681 q 900 347 900 507 q 796 92 900 183 q 492 0 692 0 l 81 0 l 81 989 l 383 989 m 383 456 l 383 236 l 481 236 q 606 344 606 236 q 482 456 606 456 l 383 456 m 1324 989 l 1324 0 l 1021 0 l 1021 989 l 1324 989 z "},"Ь":{"ha":978,"x_min":81,"x_max":942,"o":"m 383 989 l 383 681 l 551 681 q 845 594 749 681 q 942 347 942 507 q 838 92 942 183 q 533 0 733 0 l 81 0 l 81 989 l 383 989 m 383 456 l 383 236 l 522 236 q 647 344 647 236 q 524 456 647 456 l 383 456 z "},"Э":{"ha":1054,"x_min":44,"x_max":999,"o":"m 999 497 q 863 125 999 274 q 503 -24 726 -24 q 188 83 315 -24 q 44 383 60 189 l 344 383 q 503 232 369 232 q 617 275 571 232 q 682 396 664 318 l 414 396 l 414 615 l 676 615 q 503 763 633 763 q 346 646 378 763 l 51 646 q 195 910 71 807 q 497 1014 319 1014 q 859 866 719 1014 q 999 497 999 718 z "},"Ю":{"ha":1519,"x_min":81,"x_max":1468,"o":"m 533 393 l 385 393 l 385 0 l 81 0 l 81 989 l 385 989 l 385 647 l 543 647 q 704 917 582 818 q 1004 1015 826 1015 q 1340 872 1213 1015 q 1468 494 1468 728 q 1340 119 1468 263 q 1001 -24 1211 -24 q 688 89 814 -24 q 533 393 561 201 m 1160 508 q 1117 702 1160 632 q 1000 772 1075 772 q 880 699 924 772 q 836 500 836 626 q 880 295 836 368 q 1001 222 924 222 q 1119 295 1078 222 q 1160 508 1160 368 z "},"Я":{"ha":1029,"x_min":-6,"x_max":949,"o":"m 949 0 l 651 0 l 651 358 l 569 358 l 364 0 l -6 0 l 278 417 q 142 522 196 447 q 89 685 89 596 q 496 989 89 989 l 949 989 l 949 0 m 651 574 l 651 760 l 497 760 q 382 665 382 760 q 497 574 382 574 l 651 574 z "},"а":{"ha":849,"x_min":32,"x_max":810,"o":"m 810 0 l 532 0 q 521 67 522 36 q 292 -24 431 -24 q 101 36 169 -24 q 32 201 32 96 q 54 296 32 256 q 99 358 76 336 q 178 397 122 379 q 257 418 233 414 q 349 432 281 422 q 365 435 360 433 q 399 438 372 436 q 440 443 425 440 q 474 453 454 446 q 504 474 494 460 q 514 507 514 488 q 424 569 514 569 q 351 554 374 569 q 322 497 329 539 l 65 497 q 424 738 75 738 q 763 604 700 738 q 782 474 782 564 q 781 347 782 431 q 779 204 779 263 q 810 0 779 61 m 515 326 q 388 285 485 306 q 313 210 313 268 q 333 157 313 176 q 390 138 354 138 q 499 193 465 138 q 515 283 515 221 l 515 326 z "},"б":{"ha":875,"x_min":58,"x_max":825,"o":"m 825 351 q 718 83 825 186 q 442 -21 611 -21 q 150 101 254 -21 q 58 467 58 207 q 117 778 58 656 q 315 954 175 901 q 413 978 358 971 q 501 995 467 986 q 557 1028 536 1004 l 810 1028 q 784 926 807 969 q 739 859 761 882 q 658 816 717 836 q 573 790 599 796 q 469 772 547 785 q 439 767 449 768 q 228 583 250 735 l 232 583 q 500 717 306 717 q 731 615 638 717 q 825 351 825 513 m 550 351 q 439 519 550 519 q 332 349 332 519 q 442 176 332 176 q 550 351 550 176 z "},"в":{"ha":860,"x_min":63,"x_max":818,"o":"m 329 564 l 329 444 l 436 444 q 515 507 515 444 q 440 564 515 564 l 329 564 m 519 0 l 63 0 l 63 717 l 499 717 q 720 674 650 717 q 790 539 790 632 q 686 388 790 431 l 686 385 q 780 328 742 374 q 818 221 818 282 q 519 0 818 0 m 447 157 q 505 176 482 157 q 528 231 528 196 q 435 299 528 299 l 329 299 l 329 157 l 447 157 z "},"г":{"ha":694,"x_min":82,"x_max":679,"o":"m 82 717 l 679 717 l 679 510 l 356 510 l 356 0 l 82 0 l 82 717 z "},"д":{"ha":900,"x_min":6,"x_max":890,"o":"m 890 -190 l 644 -190 l 644 0 l 247 0 l 247 -190 l 6 -190 l 6 207 l 85 207 q 179 717 179 342 l 810 717 l 810 207 l 890 207 l 890 -190 m 539 207 l 539 518 l 415 518 l 415 510 q 399 351 415 446 q 350 207 383 256 l 539 207 z "},"е":{"ha":875,"x_min":43,"x_max":835,"o":"m 819 215 q 681 40 788 101 q 449 -21 575 -21 q 158 78 274 -21 q 43 350 43 176 q 155 626 43 518 q 439 735 267 735 q 727 622 619 735 q 835 319 835 510 l 835 299 l 307 299 q 347 193 310 231 q 447 156 383 156 q 563 215 524 156 l 819 215 m 567 436 q 440 558 556 558 q 308 436 329 558 l 567 436 z "},"ж":{"ha":1258,"x_min":-10,"x_max":1268,"o":"m 499 213 l 457 257 l 318 0 l -10 0 l 288 424 l 24 717 l 342 717 l 496 485 l 499 485 l 499 717 l 761 717 l 761 485 l 764 485 l 917 717 l 1236 717 l 972 424 l 1268 0 l 940 0 l 801 257 l 761 213 l 761 0 l 499 0 l 499 213 z "},"з":{"ha":833,"x_min":33,"x_max":790,"o":"m 33 249 l 294 249 q 328 172 294 201 q 410 142 361 142 q 481 166 457 142 q 506 225 506 190 q 478 281 506 267 q 393 296 450 296 q 347 294 364 296 l 347 439 q 456 453 424 439 q 488 511 488 468 q 465 553 488 538 q 408 569 443 569 q 353 551 378 569 q 322 497 328 533 l 64 497 q 163 676 64 618 q 424 735 261 735 q 674 681 586 735 q 763 532 763 626 q 733 445 763 483 q 657 388 704 407 q 754 333 718 376 q 790 235 790 289 q 687 44 790 110 q 394 -21 583 -21 q 132 47 231 -21 q 33 244 33 114 l 33 249 z "},"и":{"ha":900,"x_min":76,"x_max":825,"o":"m 551 717 l 825 717 l 825 0 l 563 0 l 563 382 l 558 382 l 350 0 l 76 0 l 76 717 l 339 717 l 339 344 l 343 344 l 551 717 z "},"й":{"ha":900,"x_min":76,"x_max":825,"o":"m 683 989 q 614 828 679 886 q 450 771 549 771 q 278 825 343 771 q 207 989 214 879 l 333 989 q 450 913 340 913 q 558 989 547 913 l 683 989 m 825 0 l 563 0 l 563 375 l 558 375 l 350 0 l 76 0 l 76 717 l 339 717 l 339 351 l 343 351 l 551 717 l 825 717 l 825 0 z "},"к":{"ha":849,"x_min":72,"x_max":864,"o":"m 829 717 l 576 436 l 864 0 l 543 0 l 403 243 l 346 179 l 346 0 l 72 0 l 72 717 l 346 717 l 346 481 l 350 481 l 528 717 l 829 717 z "},"л":{"ha":875,"x_min":6,"x_max":797,"o":"m 797 0 l 529 0 l 529 510 l 393 510 q 371 217 393 319 q 283 40 346 93 q 103 -14 219 -14 q 60 -9 85 -14 q 21 0 36 -4 l 6 6 l 6 201 q 50 192 32 192 q 81 199 68 192 q 103 223 94 207 q 118 253 113 239 q 126 292 124 268 q 129 331 128 317 q 131 369 131 344 q 132 399 132 393 q 136 717 136 494 l 797 717 l 797 0 z "},"м":{"ha":1111,"x_min":75,"x_max":1035,"o":"m 326 449 l 322 449 l 329 0 l 75 0 l 75 717 l 418 717 l 554 299 l 556 299 l 690 717 l 1035 717 l 1035 0 l 781 0 l 788 449 l 783 449 l 636 0 l 474 0 l 326 449 z "},"н":{"ha":900,"x_min":76,"x_max":825,"o":"m 551 481 l 551 717 l 825 717 l 825 0 l 551 0 l 551 274 l 350 274 l 350 0 l 76 0 l 76 717 l 350 717 l 350 481 l 551 481 z "},"о":{"ha":875,"x_min":43,"x_max":831,"o":"m 440 738 q 722 633 614 738 q 831 361 831 529 q 721 85 831 192 q 438 -21 611 -21 q 153 85 263 -21 q 43 358 43 190 q 153 632 43 526 q 440 738 264 738 m 435 539 q 318 358 318 539 q 438 176 318 176 q 556 361 556 176 q 435 539 556 539 z "},"п":{"ha":900,"x_min":76,"x_max":825,"o":"m 825 717 l 825 0 l 551 0 l 551 510 l 350 510 l 350 0 l 76 0 l 76 717 l 825 717 z "},"р":{"ha":900,"x_min":76,"x_max":857,"o":"m 340 717 l 340 639 q 546 735 414 735 q 772 630 686 735 q 857 353 857 525 q 775 83 857 183 q 556 -18 693 -18 q 350 76 436 -18 l 350 -231 l 76 -231 l 76 717 l 340 717 m 461 515 q 342 351 342 515 q 463 190 342 190 q 582 353 582 190 q 461 515 582 515 z "},"с":{"ha":849,"x_min":46,"x_max":813,"o":"m 813 288 q 694 63 793 143 q 438 -18 594 -18 q 155 85 264 -18 q 46 353 46 188 q 154 628 46 524 q 439 733 263 733 q 695 654 594 733 q 807 446 796 575 l 544 446 q 510 514 539 489 q 442 539 482 539 q 321 351 321 539 q 440 182 321 182 q 550 288 533 182 l 813 288 z "},"т":{"ha":772,"x_min":21,"x_max":751,"o":"m 250 510 l 21 510 l 21 717 l 751 717 l 751 510 l 522 510 l 522 0 l 250 0 l 250 510 z "},"у":{"ha":772,"x_min":-19,"x_max":788,"o":"m 788 717 l 525 -17 q 420 -185 482 -137 q 232 -232 358 -232 l 53 -232 l 53 -12 q 117 -14 82 -14 q 153 -12 139 -14 q 185 -6 167 -11 q 213 12 203 -1 q 222 46 222 25 q 214 81 222 60 l -19 717 l 272 717 l 353 433 q 388 267 372 364 q 426 442 413 394 l 506 717 l 788 717 z "},"ф":{"ha":1250,"x_min":44,"x_max":1207,"o":"m 1207 364 q 1124 81 1207 183 q 907 -21 1040 -21 q 817 1 857 -21 q 763 44 776 22 l 758 44 l 758 -242 l 493 -242 l 493 44 l 489 44 q 435 1 475 22 q 344 -21 394 -21 q 128 81 211 -21 q 44 364 44 183 q 119 632 44 528 q 332 736 193 736 q 428 712 382 736 q 489 657 474 688 l 493 657 l 493 989 l 758 989 l 758 657 l 763 657 q 824 712 778 688 q 919 736 869 736 q 1133 631 1058 736 q 1207 364 1207 526 m 940 371 q 831 531 940 531 q 787 519 808 531 q 758 492 765 508 l 758 228 q 788 199 767 211 q 828 186 808 186 q 940 371 940 186 m 493 228 l 493 492 q 465 519 486 508 q 421 531 443 531 q 311 371 311 531 q 424 186 311 186 q 464 199 443 186 q 493 228 485 211 z "},"х":{"ha":772,"x_min":-18,"x_max":789,"o":"m 758 717 l 535 378 l 789 0 l 488 0 l 435 86 q 386 190 413 122 q 333 83 356 119 l 285 0 l -18 0 l 233 378 l 8 717 l 308 717 l 346 650 q 389 564 375 594 q 435 661 421 636 l 467 717 l 758 717 z "},"ц":{"ha":926,"x_min":76,"x_max":910,"o":"m 910 -190 l 660 -190 l 660 0 l 76 0 l 76 717 l 350 717 l 350 210 l 542 210 l 542 717 l 815 717 l 815 210 l 910 210 l 910 -190 z "},"ч":{"ha":849,"x_min":53,"x_max":775,"o":"m 775 717 l 775 0 l 521 0 l 521 282 q 300 240 403 240 q 53 526 53 240 l 53 717 l 326 717 l 326 561 q 349 460 326 489 q 424 432 372 432 q 501 454 468 432 l 501 717 l 775 717 z "},"ш":{"ha":1278,"x_min":75,"x_max":1203,"o":"m 75 0 l 75 717 l 343 717 l 343 210 l 506 210 l 506 717 l 772 717 l 772 210 l 935 210 l 935 717 l 1203 717 l 1203 0 l 75 0 z "},"щ":{"ha":1306,"x_min":68,"x_max":1289,"o":"m 68 0 l 68 717 l 336 717 l 336 210 l 499 210 l 499 717 l 765 717 l 765 210 l 928 210 l 928 717 l 1196 717 l 1196 210 l 1289 210 l 1289 -190 l 1039 -190 l 1039 0 l 68 0 z "},"ъ":{"ha":953,"x_min":8,"x_max":924,"o":"m 924 251 q 850 67 924 133 q 631 0 776 0 l 194 0 l 194 510 l 8 510 l 8 717 l 467 717 l 467 493 l 639 493 q 853 430 782 493 q 924 251 924 367 m 642 246 q 551 326 642 326 l 468 326 l 468 167 l 550 167 q 642 246 642 167 z "},"ы":{"ha":1185,"x_min":72,"x_max":1113,"o":"m 1113 0 l 846 0 l 846 717 l 1113 717 l 1113 0 m 772 251 q 699 67 772 133 q 481 0 625 0 l 72 0 l 72 717 l 339 717 l 339 493 l 488 493 q 702 430 632 493 q 772 251 772 367 m 407 167 q 499 246 499 167 q 407 325 499 325 l 339 325 l 339 167 l 407 167 z "},"ь":{"ha":833,"x_min":75,"x_max":803,"o":"m 803 251 q 729 67 803 133 q 511 0 656 0 l 75 0 l 75 717 l 349 717 l 349 493 l 518 493 q 733 430 663 493 q 803 251 803 367 m 431 167 q 522 246 522 167 q 431 325 522 325 l 349 325 l 349 167 l 431 167 z "},"э":{"ha":849,"x_min":38,"x_max":803,"o":"m 803 353 q 694 85 803 188 q 411 -18 585 -18 q 159 59 257 -18 q 38 275 61 136 l 301 275 q 408 182 319 182 q 524 299 507 182 l 353 299 l 353 436 l 519 436 q 407 539 494 539 q 341 517 368 539 q 306 457 314 496 l 43 457 q 157 658 57 582 q 410 733 257 733 q 694 628 586 733 q 803 353 803 524 z "},"ю":{"ha":1233,"x_min":76,"x_max":1190,"o":"m 824 738 q 1088 633 986 738 q 1190 361 1190 529 q 1088 85 1190 192 q 821 -21 985 -21 q 578 61 676 -21 q 457 281 481 143 l 350 281 l 350 0 l 76 0 l 76 717 l 350 717 l 350 474 l 465 474 q 593 667 497 596 q 824 738 689 738 m 818 539 q 721 358 721 539 q 821 176 721 176 q 919 361 919 176 q 818 539 919 539 z "},"я":{"ha":849,"x_min":0,"x_max":772,"o":"m 457 244 l 328 0 l 0 0 l 185 269 q 76 363 110 301 q 42 486 42 425 q 120 654 42 592 q 354 717 199 717 l 772 717 l 772 0 l 499 0 l 499 244 l 457 244 m 499 403 l 499 557 l 422 557 q 325 481 325 557 q 421 403 325 403 l 499 403 z "},"ё":{"ha":875,"x_min":43,"x_max":835,"o":"m 819 215 q 681 40 788 101 q 449 -21 575 -21 q 158 78 274 -21 q 43 350 43 176 q 155 626 43 518 q 439 735 267 735 q 727 622 619 735 q 835 319 835 510 l 835 299 l 307 299 q 347 193 310 231 q 447 156 383 156 q 563 215 524 156 l 819 215 m 567 436 q 440 558 556 558 q 308 436 329 558 l 567 436 m 721 989 l 721 797 l 478 797 l 478 989 l 721 989 m 403 989 l 403 797 l 158 797 l 158 989 l 403 989 z "},"ђ":{"ha":875,"x_min":0,"x_max":811,"o":"m 811 138 q 806 28 811 76 q 784 -73 801 -19 q 738 -161 767 -126 q 659 -219 710 -196 q 539 -243 608 -243 q 415 -239 489 -243 l 415 -37 q 513 7 489 -37 q 538 138 538 51 l 538 143 q 442 278 538 278 q 359 240 382 278 q 336 129 336 203 l 336 0 l 63 0 l 63 568 l 0 568 l 0 735 l 63 735 l 63 989 l 336 989 l 336 735 l 608 735 l 608 568 l 336 568 l 336 390 q 544 501 422 501 q 811 194 811 501 l 811 138 z "},"ѓ":{"ha":694,"x_min":82,"x_max":679,"o":"m 82 717 l 679 717 l 679 510 l 356 510 l 356 0 l 82 0 l 82 717 m 607 989 l 360 788 l 178 788 l 314 989 l 607 989 z "},"є":{"ha":849,"x_min":46,"x_max":811,"o":"m 496 299 l 325 299 q 440 182 342 182 q 547 275 529 182 l 811 275 q 690 59 788 136 q 438 -18 592 -18 q 155 85 264 -18 q 46 353 46 188 q 154 628 46 524 q 439 733 263 733 q 692 658 592 733 q 806 457 792 582 l 543 457 q 508 517 535 496 q 442 539 481 539 q 329 436 354 539 l 496 436 l 496 299 z "},"ѕ":{"ha":797,"x_min":36,"x_max":761,"o":"m 740 507 l 492 507 q 464 560 485 546 q 394 574 443 574 q 319 531 319 574 q 331 503 319 515 q 367 484 343 492 q 407 473 390 476 q 450 466 424 469 q 478 463 476 463 q 560 445 528 453 q 635 419 593 438 q 701 379 676 401 q 744 319 726 357 q 761 233 761 282 q 665 49 761 115 q 400 -18 569 -18 q 36 239 57 -18 l 296 239 q 327 174 301 194 q 406 154 353 154 q 469 169 446 154 q 492 211 492 185 q 469 249 492 238 q 385 274 447 260 q 351 281 364 278 q 163 335 210 311 q 51 511 51 389 q 141 679 51 621 q 400 738 231 738 q 638 687 546 738 q 740 507 729 636 z "},"і":{"ha":438,"x_min":81,"x_max":356,"o":"m 356 989 l 356 797 l 81 797 l 81 989 l 356 989 m 356 717 l 356 0 l 81 0 l 81 717 l 356 717 z "},"ї":{"ha":438,"x_min":-62,"x_max":500,"o":"m 356 717 l 356 0 l 81 0 l 81 717 l 356 717 m 500 989 l 500 797 l 257 797 l 257 989 l 500 989 m 182 989 l 182 797 l -62 797 l -62 989 l 182 989 z "},"ј":{"ha":438,"x_min":-39,"x_max":360,"o":"m 360 717 l 360 17 q 342 -111 360 -61 q 287 -187 325 -161 q 200 -223 249 -214 q 76 -232 151 -232 q 19 -231 57 -232 q -39 -231 -19 -231 l -39 -12 q -22 -14 -31 -14 q 65 -1 46 -14 q 83 74 83 13 l 83 717 l 360 717 m 360 989 l 360 793 l 83 793 l 83 989 l 360 989 z "},"љ":{"ha":1253,"x_min":8,"x_max":1225,"o":"m 1225 251 q 1151 67 1225 133 q 932 0 1078 0 l 524 0 l 524 510 l 403 510 q 381 217 403 319 q 290 40 356 94 q 106 -14 224 -14 q 63 -9 88 -14 q 24 0 39 -4 l 8 6 l 8 201 q 51 192 33 192 q 83 199 69 192 q 105 223 96 207 q 119 253 114 239 q 127 292 125 268 q 131 331 129 317 q 133 369 132 344 q 133 399 133 393 q 138 717 138 494 l 797 717 l 797 493 l 940 493 q 1154 430 1083 493 q 1225 251 1225 367 m 943 246 q 853 326 943 326 l 797 326 l 797 167 l 851 167 q 943 246 943 167 z "},"њ":{"ha":1253,"x_min":76,"x_max":1225,"o":"m 1225 243 q 1152 63 1225 125 q 932 0 1079 0 l 524 0 l 524 311 l 350 311 l 350 0 l 76 0 l 76 717 l 350 717 l 350 478 l 524 478 l 524 717 l 797 717 l 797 478 l 940 478 q 1225 243 1225 478 m 919 181 q 931 188 919 181 q 943 238 943 194 q 919 296 943 281 q 853 311 896 311 l 797 311 l 797 167 l 851 167 q 919 181 894 167 z "},"ћ":{"ha":875,"x_min":0,"x_max":811,"o":"m 811 0 l 538 0 l 538 143 q 442 278 538 278 q 359 240 382 278 q 336 129 336 203 l 336 0 l 63 0 l 63 568 l 0 568 l 0 735 l 63 735 l 63 989 l 336 989 l 336 735 l 608 735 l 608 568 l 336 568 l 336 390 q 544 501 422 501 q 811 194 811 501 l 811 0 z "},"ќ":{"ha":849,"x_min":72,"x_max":864,"o":"m 829 717 l 576 436 l 864 0 l 543 0 l 403 243 l 346 179 l 346 0 l 72 0 l 72 717 l 346 717 l 346 481 l 350 481 l 528 717 l 829 717 m 683 989 l 436 788 l 254 788 l 390 989 l 683 989 z "},"ў":{"ha":772,"x_min":-19,"x_max":788,"o":"m 788 717 l 525 -17 q 420 -185 482 -137 q 232 -232 358 -232 l 53 -232 l 53 -12 q 117 -14 82 -14 q 153 -12 139 -14 q 185 -6 167 -11 q 213 12 203 -1 q 222 46 222 25 q 214 81 222 60 l -19 717 l 272 717 l 353 433 q 388 267 372 364 q 426 442 413 394 l 506 717 l 788 717 m 151 989 l 278 989 q 394 913 285 913 q 503 989 492 913 l 628 989 q 558 828 624 886 q 394 771 493 771 q 223 825 288 771 q 151 989 158 879 z "},"џ":{"ha":900,"x_min":76,"x_max":825,"o":"m 576 0 l 576 -190 l 326 -190 l 326 0 l 76 0 l 76 717 l 350 717 l 350 210 l 551 210 l 551 717 l 825 717 l 825 0 l 576 0 z "},"Ґ":{"ha":849,"x_min":71,"x_max":828,"o":"m 375 735 l 375 0 l 71 0 l 71 989 l 569 989 l 569 1211 l 828 1211 l 828 735 l 375 735 z "},"ґ":{"ha":694,"x_min":72,"x_max":676,"o":"m 72 717 l 451 717 l 451 899 l 676 899 l 676 510 l 346 510 l 346 0 l 72 0 l 72 717 z "},"–":{"ha":694,"x_min":0,"x_max":694,"o":"m 694 488 l 694 253 l 0 253 l 0 488 l 694 488 z "},"—":{"ha":1389,"x_min":0,"x_max":1389,"o":"m 1389 488 l 1389 253 l 0 253 l 0 488 l 1389 488 z "},"‘":{"ha":411,"x_min":64,"x_max":346,"o":"m 346 997 l 346 869 q 225 740 235 853 l 346 740 l 346 456 l 64 456 l 64 679 q 133 909 64 833 q 346 997 201 985 z "},"’":{"ha":411,"x_min":64,"x_max":346,"o":"m 346 765 q 277 535 346 611 q 64 447 208 460 l 64 575 q 185 704 175 592 l 64 704 l 64 989 l 346 989 l 346 765 z "},"‚":{"ha":411,"x_min":64,"x_max":346,"o":"m 346 60 q 277 -170 346 -94 q 64 -258 208 -246 l 64 -131 q 185 -1 175 -114 l 64 -1 l 64 283 l 346 283 l 346 60 z "},"“":{"ha":721,"x_min":67,"x_max":647,"o":"m 311 997 l 311 878 q 230 833 254 865 q 203 743 206 801 l 311 743 l 311 458 l 67 458 l 67 692 q 122 901 67 828 q 311 997 178 975 m 647 997 l 647 878 q 566 833 590 865 q 539 743 542 801 l 647 743 l 647 458 l 403 458 l 403 692 q 458 901 403 828 q 647 997 514 975 z "},"”":{"ha":721,"x_min":69,"x_max":650,"o":"m 650 756 q 594 546 650 619 q 406 450 539 472 l 406 569 q 487 614 463 582 q 514 704 511 646 l 406 704 l 406 989 l 650 989 l 650 756 m 314 756 q 258 546 314 619 q 69 450 203 472 l 69 569 q 151 614 126 582 q 178 704 175 646 l 69 704 l 69 989 l 314 989 l 314 756 z "},"„":{"ha":721,"x_min":72,"x_max":653,"o":"m 653 50 q 597 -160 653 -86 q 408 -256 542 -233 l 408 -136 q 490 -92 465 -124 q 517 -1 514 -60 l 408 -1 l 408 283 l 653 283 l 653 50 m 317 50 q 261 -160 317 -86 q 72 -256 206 -233 l 72 -136 q 153 -92 129 -124 q 181 -1 178 -60 l 72 -1 l 72 283 l 317 283 l 317 50 z "},"†":{"ha":926,"x_min":85,"x_max":842,"o":"m 842 733 l 842 497 l 597 497 l 597 -240 l 328 -240 l 328 497 l 85 497 l 85 733 l 328 733 l 328 989 l 597 989 l 597 733 l 842 733 z "},"‡":{"ha":926,"x_min":85,"x_max":842,"o":"m 842 739 l 842 511 l 597 511 l 597 240 l 842 240 l 842 14 l 597 14 l 597 -239 l 329 -239 l 329 14 l 85 14 l 85 240 l 329 240 l 329 511 l 85 511 l 85 739 l 329 739 l 329 989 l 597 989 l 597 739 l 842 739 z "},"•":{"ha":694,"x_min":96,"x_max":599,"o":"m 347 744 q 525 672 451 746 q 599 494 599 599 q 526 317 599 390 q 347 243 453 243 q 169 317 243 243 q 96 494 96 390 q 169 672 96 599 q 347 744 243 744 z "},"…":{"ha":1389,"x_min":89,"x_max":1300,"o":"m 375 285 l 375 0 l 89 0 l 89 285 l 375 285 m 838 285 l 838 0 l 551 0 l 551 285 l 838 285 m 1300 285 l 1300 0 l 1014 0 l 1014 285 l 1300 285 z "},"‰":{"ha":1621,"x_min":90,"x_max":1528,"o":"m 925 985 l 360 -28 l 207 -28 l 772 985 l 925 985 m 293 972 q 492 731 492 972 q 440 553 492 615 q 290 490 388 490 q 142 553 194 490 q 90 729 90 615 q 142 910 90 847 q 293 972 194 972 m 292 867 q 249 835 261 867 q 238 719 238 803 q 290 599 238 599 q 333 629 321 599 q 344 738 344 660 q 333 838 344 810 q 292 867 321 867 m 850 461 q 1049 219 1049 461 q 997 42 1049 104 q 847 -21 944 -21 q 699 42 751 -21 q 647 218 647 104 q 699 399 647 336 q 850 461 751 461 m 849 356 q 806 324 818 356 q 794 208 794 292 q 847 88 794 88 q 890 118 878 88 q 901 226 901 149 q 890 327 901 299 q 849 356 878 356 m 1329 461 q 1528 219 1528 461 q 1476 42 1528 104 q 1326 -21 1424 -21 q 1178 42 1231 -21 q 1126 218 1126 104 q 1178 399 1126 336 q 1329 461 1231 461 m 1328 356 q 1285 324 1297 356 q 1274 208 1274 292 q 1326 88 1274 88 q 1369 118 1357 88 q 1381 226 1381 149 q 1369 327 1381 299 q 1328 356 1357 356 z "},"‹":{"ha":335,"x_min":56,"x_max":278,"o":"m 278 668 l 278 456 l 171 369 l 278 283 l 278 68 l 56 244 l 56 490 l 278 668 z "},"›":{"ha":335,"x_min":56,"x_max":279,"o":"m 56 671 l 279 493 l 279 244 l 56 68 l 56 276 l 164 367 l 56 454 l 56 671 z "},"№":{"ha":1621,"x_min":81,"x_max":1554,"o":"m 371 963 l 682 428 l 669 651 l 669 963 l 967 963 l 967 0 l 676 0 l 365 517 l 378 292 l 378 0 l 81 0 l 81 963 l 371 963 m 1044 421 q 1113 591 1044 531 q 1297 651 1182 651 q 1485 591 1417 651 q 1554 429 1554 531 q 1483 258 1554 317 q 1299 199 1411 199 q 1115 256 1186 199 q 1044 421 1044 314 m 1540 0 l 1057 0 l 1057 157 l 1540 157 l 1540 0 m 1228 429 q 1299 319 1228 319 q 1369 429 1369 319 q 1350 502 1369 475 q 1300 529 1331 529 q 1246 500 1264 529 q 1228 429 1228 471 z "},"™":{"ha":1389,"x_min":83,"x_max":1219,"o":"m 218 492 l 218 867 l 83 867 l 83 989 l 515 989 l 515 867 l 379 867 l 379 492 l 218 492 m 588 492 l 588 989 l 811 989 l 903 701 l 996 989 l 1219 989 l 1219 492 l 1075 492 l 1075 865 l 954 492 l 853 492 l 732 865 l 732 492 l 588 492 z "},"∆":{"ha":992,"x_min":15,"x_max":976,"o":"m 594 989 l 976 0 l 15 0 l 368 989 l 594 989 m 296 194 l 685 194 l 483 757 l 296 194 z "},"√":{"ha":833,"x_min":-24,"x_max":850,"o":"m 850 1092 l 554 -297 l 315 -297 l 129 110 l 50 74 l -24 232 l 264 351 l 403 17 l 607 1092 l 850 1092 z "},"∞":{"ha":1213,"x_min":63,"x_max":1150,"o":"m 871 71 q 607 218 726 71 q 488 110 547 147 q 347 72 429 72 q 140 154 217 72 q 63 364 63 236 q 138 572 63 492 q 340 651 213 651 q 487 611 426 651 q 607 496 547 571 q 725 612 667 572 q 872 651 783 651 q 1076 571 1001 651 q 1150 365 1150 490 q 1075 154 1150 238 q 871 71 1000 71 m 865 456 q 724 358 800 456 q 869 267 797 267 q 933 294 910 267 q 957 363 957 321 q 932 430 957 404 q 865 456 907 456 m 342 456 q 278 428 303 456 q 254 361 254 400 q 278 294 254 319 q 344 268 303 268 q 488 358 415 268 q 342 456 411 456 z "},"≈":{"ha":833,"x_min":1,"x_max":833,"o":"m 135 379 l 1 379 q 233 693 40 693 q 389 660 301 693 q 596 596 553 596 q 660 616 636 596 q 699 693 683 636 l 833 693 q 814 593 829 644 q 772 492 799 542 q 699 410 744 442 q 599 379 654 379 q 403 428 532 379 q 367 442 392 432 q 331 456 343 451 q 301 466 319 460 q 266 474 282 472 q 235 476 250 476 q 172 455 196 476 q 135 379 149 433 m 135 39 l 1 39 q 233 353 40 353 q 389 319 301 353 q 596 256 553 256 q 660 276 636 256 q 699 353 683 296 l 833 353 q 814 253 829 304 q 772 151 799 201 q 699 70 744 101 q 599 39 654 39 q 403 88 532 39 q 367 101 392 92 q 331 115 343 111 q 301 126 319 119 q 266 134 282 132 q 235 136 250 136 q 172 115 196 136 q 135 39 149 93 z "},"≠":{"ha":833,"x_min":29,"x_max":806,"o":"m 29 325 l 288 325 l 333 418 l 29 418 l 29 631 l 439 631 l 550 854 l 728 767 l 660 631 l 806 631 l 806 418 l 554 418 l 508 325 l 806 325 l 806 114 l 404 114 l 285 -126 l 107 -39 l 183 114 l 29 114 l 29 325 z "},"≤":{"ha":833,"x_min":40,"x_max":790,"o":"m 40 400 l 40 601 l 790 817 l 790 594 l 350 501 l 790 393 l 790 171 l 40 400 m 40 135 l 790 135 l 790 -90 l 40 -90 l 40 135 z "},"≥":{"ha":833,"x_min":40,"x_max":790,"o":"m 790 400 l 40 171 l 40 393 l 481 501 l 40 594 l 40 817 l 790 601 l 790 400 m 790 -90 l 40 -90 l 40 135 l 790 135 l 790 -90 z "},"":{"ha":565,"x_min":65,"x_max":500,"o":"m 500 489 l 500 253 l 65 253 l 65 489 l 500 489 z "},"":{"ha":464,"x_min":0,"x_max":0,"o":""}}}
